<?xml version="1.0" encoding="utf-8"?>
<!-- Generator: Adobe Illustrator 24.1.2, SVG Export Plug-In . SVG Version: 6.00 Build 0)  -->
<svg version="1.1" id="Layer_1" xmlns="http://www.w3.org/2000/svg" xmlns:xlink="http://www.w3.org/1999/xlink" x="0px" y="0px"
	 viewBox="0 0 116.6 48" style="enable-background:new 0 0 116.6 48;" xml:space="preserve">
<style type="text/css">
	.st0{fill:#ECECEC;}
	.st1{fill:#E4E6E5;}
	.st2{fill:#A6ABA7;}
	.st3{fill:#006182;}
	.st4{fill:#015673;}
	.st5{fill:#044156;}
	.st6{fill:#006080;}
	.st7{fill:#018AB7;}
	.st8{fill:#017399;}
	.st9{fill:#03769E;}
	.st10{fill:#0294C4;}
	.st11{fill:#0399C9;}
	.st12{fill:#034960;}
	.st13{fill:#65B8D9;}
	.st14{fill:#45AFD6;}
	.st15{fill:#25AAD3;}
	.st16{fill:#1CA6CF;}
	.st17{fill:#0F3342;}
	.st18{fill:#123F4D;}
	.st19{fill:#134357;}
	.st20{fill:#184858;}
	.st21{fill:#113846;}
	.st22{fill:#083A4E;}
	.st23{fill:#017299;}
	.st24{fill:#01749B;}
	.st25{fill:#A9AAAE;}
	.st26{fill:#A9AAAD;}
	.st27{fill:#0284B0;}
	.st28{fill:#AAAAAE;}
	.st29{fill:#026E92;}
	.st30{fill:#007DA8;}
	.st31{fill:#01688B;}
	.st32{fill:#0180AA;}
	.st33{fill:#045D7C;}
	.st34{fill:#0C3D4D;}
	.st35{fill:#0C3F4F;}
	.st36{fill:#13404D;}
	.st37{fill:#0C4859;}
	.st38{fill:#144150;}
	.st39{fill:#103B4B;}
	.st40{fill:#C1D7E2;}
	.st41{fill:#B8C6D3;}
	.st42{fill:#024F66;}
	.st43{fill:#244552;}
	.st44{fill:#B8CED1;}
	.st45{fill:#09475C;}
	.st46{fill:#B3C3CE;}
	.st47{fill:#11475A;}
	.st48{fill:#096F91;}
	.st49{fill:#02546F;}
	.st50{fill:#BAD0D8;}
	.st51{fill:#184E60;}
	.st52{fill:#BFD2DE;}
	.st53{fill:#154554;}
	.st54{fill:#0F4A5E;}
	.st55{fill:#B9CED4;}
	.st56{fill:#B8CDD1;}
	.st57{fill:#C0D3DE;}
	.st58{fill:#13566C;}
	.st59{fill:#BBCFD2;}
	.st60{fill:#1B596D;}
	.st61{fill:#BFD4E0;}
	.st62{fill:#0191C1;}
	.st63{fill:#144D61;}
	.st64{fill:#015E7D;}
	.st65{fill:#144859;}
	.st66{fill:#194C5D;}
	.st67{fill:#AFC4CF;}
	.st68{fill:#C1D2DD;}
	.st69{fill:#02536E;}
	.st70{fill:#143F4D;}
	.st71{fill:#134D61;}
	.st72{fill:#02A7DD;}
	.st73{fill:#0197C9;}
	.st74{fill:#036686;}
	.st75{fill:#2C4855;}
	.st76{fill:#0B4152;}
	.st77{fill:#418098;}
	.st78{fill:#C1D5D8;}
	.st79{fill:#A5C6D1;}
	.st80{fill:#02ABDE;}
	.st81{fill:#40BAE3;}
	.st82{fill:#13B9E7;}
	.st83{fill:#01A4D7;}
	.st84{fill:#72C6E8;}
	.st85{fill:#56C4ED;}
	.st86{fill:#56C0E7;}
	.st87{fill:#2CBFED;}
	.st88{fill:#01B4EA;}
	.st89{fill:#007EA8;}
	.st90{fill:#017197;}
	.st91{fill:#174757;}
	.st92{fill:#1C4856;}
	.st93{fill:#036685;}
	.st94{fill:#B5CAD6;}
	.st95{fill:#A7BCCE;}
	.st96{fill:#01A5DA;}
	.st97{fill:#0196C7;}
	.st98{fill:#0187B3;}
	.st99{fill:#175267;}
	.st100{fill:#028FBE;}
	.st101{fill:#02A2D6;}
	.st102{fill:#B8CADA;}
	.st103{fill:#0295C3;}
	.st104{fill:#104D61;}
	.st105{fill:#036A8B;}
	.st106{fill:#1D4654;}
	.st107{fill:#BDD5DE;}
	.st108{fill:#98C3D8;}
	.st109{fill:#0385B1;}
	.st110{fill:#01779D;}
	.st111{fill:#01A8DF;}
	.st112{fill:#018AB8;}
	.st113{fill:#019BCD;}
	.st114{fill:#123E4E;}
	.st115{fill:#09536D;}
	.st116{fill:#B9CAD0;}
	.st117{fill:#01B5EF;}
	.st118{fill:#2A85A6;}
	.st119{fill:#1D4956;}
	.st120{fill:#28697F;}
	.st121{fill:#039ECB;}
	.st122{fill:#048FBB;}
	.st123{fill:#89CFED;}
</style>
<path class="st0" d="M53.4,47.5c0-0.1,0-0.1,0-0.2c0.3-0.4,0.8-0.4,1.2-0.4c2.3,0,4.6,0,6.9,0c0.4,0,0.9,0,1.2,0.4
	c0,0.1,0,0.1,0,0.2C59.6,47.5,56.5,47.5,53.4,47.5z"/>
<path class="st1" d="M1.6,25.5L1.6,25.5l-0.2,0c0-0.9,0-1.8,0-2.7c0.1,0,0.1,0,0.2,0C2.2,23.7,2.2,24.6,1.6,25.5z"/>
<path class="st2" d="M1.6,25.5c0-0.9,0-1.8,0-2.7c0.9-4.2,3.5-7.2,6.9-9.7C15.2,8.2,23,5.8,30.9,4c4.6-1.1,9.3-1.7,14-2.2
	C51.6,1.1,58.4,1,65.1,1.3c8.1,0.4,16.1,1.5,24,3.5c5.8,1.5,11.5,3.5,16.6,6.7c3.2,2,6.1,4.4,7.9,7.9c2.3,4.5,1.2,9-2,12.6
	c-4.3,4.8-10,7.4-15.9,9.6c-5.6,2-11.3,3.3-17.2,4.2c-2.9,0.5-5.8,0.8-8.7,1c-2.3,0.1-4.7,0.3-7,0.5c-3.1,0-6.2,0-9.3,0
	c-7.9-0.3-15.8-1.2-23.6-3c-5.4-1.3-10.7-2.9-15.7-5.4c-4-2-7.7-4.5-10.4-8.1C2.6,29.2,1.9,27.4,1.6,25.5z"/>
<path class="st3" d="M26.6,40.5c-1-0.2-2-0.4-3-0.9c-2.2-0.6-3.4-2.2-4.7-3.9c-0.9-1.2-1.9-2.3-2.7-3.6c-0.6-0.9-1.6-1.5-2.2-2.5
	c-0.3-0.6-0.6-1.1-0.7-1.8c-0.4-2-0.6-4-0.2-6c0.3-1.2,0.9-2.3,1.5-3.4c0.2-0.4,0.6-0.6,1.1-0.5c0.5,0.2,0.5,0.7,0.4,1.2
	c-0.4,1.5-0.6,3-0.1,4.6c0.1,0.1,0.1,0.2,0.2,0.3c1.4,3,5,4.2,7.9,2.6c0.9-0.5,1.9-0.9,1.7-2.2c-0.1-0.2-0.2-0.3-0.4-0.4
	c-0.5,0-0.7,0.5-1.1,0.7c-1.2,0.9-2.5,1.6-4,0.8c-0.1-0.1-0.1-0.2-0.2-0.3c-0.3-0.7-1-1.3-0.7-2.3c0.4-1.7,0.7-3.4,1.6-4.9
	c1-1.5,2.6-2.7,4.2-2.1c0.2,0.1,0.4,0.2,0.6,0.3c0.5,0.5,0.3,1.2,0.4,1.8c0.3,0.8,0.7,0.8,1,0c0.5-1.3,0.6-2.8,0.5-4.2
	c0.2-0.5,0.6-0.5,1-0.6c1.5-0.3,2.9-0.5,4.4-0.8c0.9,0.1,1.7-0.1,2.6-0.2c1.9-0.3,3.8-0.4,5.7-0.6c2.7-0.3,5.3-0.4,8-0.6
	c1.4-0.1,2.9,0,4.3-0.1c0.7,0,1.4-0.1,2-0.6c0.5-0.4,1-0.4,1.6,0c0.7,0.5,1.5,0.6,2.4,0.6c1.1,0,2.2,0,3.3,0
	c4.8,0.1,9.5,0.2,14.2,0.8c2.3,0.3,4.6,0.3,6.8,1.1c0.1,0.1,0.3,0.1,0.4,0.1c2.1-0.6,4,0.5,6.1,0.9c1.8,0.3,3.6,0.7,5.4,1.2
	c0.4,0.1,0.7,0.1,1.1-0.2c0.1-0.1,0.2-0.1,0.4-0.1c0.1,0,0.2,0.1,0.2,0.2c0.1,0.4-0.2,0.8-0.4,1.2c-1.7,2.7-3.4,5.4-5.2,8.1
	c-0.4,0.7-1,1.3-1.8,1.4c-0.1,0-0.2-0.1-0.3-0.1c-1.3-1.8-2.1-1.8-3.4,0c-0.4,0.5-0.8,1-1.3,1.4c-1.2,0.8-2.5,1.1-4,0.8
	c-0.6-0.1-1.1-0.4-1.8-0.3c-0.6,0-1.3,0.5-1.6-0.5c0.7-0.6,1.5-0.5,2.3-0.4c0.9,0.1,1.7,0.4,2.6,0.3c1.8-0.1,2.9-1.2,3.5-2.8
	c0.5-1.3,0.1-2.5-0.8-3.5c-1-0.6-1.8-1.5-2.6-2.4c-0.3-0.6-1-1.1-0.5-1.9c0.4-0.6,1-0.9,1.7-0.9c0.9,0,1.1,0.8,1.5,1.3
	c0.3,0.2,0.3,0.6,0.5,1c0.1,0.4,0.3,0.6,0.7,0.3c0.7-0.6,0.9-2.7,0.4-3.6c-0.1-0.1-0.3-0.1-0.4-0.1c-0.7,0.4-1.4,0.4-2.2,0.1
	c-0.4-0.1-0.7-0.2-1.1-0.2c-2.6-0.1-3.7,1-3.9,3.6c0,0.1,0,0.2-0.1,0.3c-0.3,0.7,0.3,1.2,0.6,1.7c0.5,0.6,1.1,1.1,1.7,1.6
	c0.3,0.3,0.9,0.5,0.6,1.1c-0.9,0-1.4-0.6-2-1.1c-0.6-0.5-1.3-0.8-2-1c-1.7-0.5-3.4-1-5.2-1c-1.1,0-1.7,0.3-2.1,1.3
	c-0.1,0.4-0.3,0.7-0.4,1c-0.1,0.3-0.2,0.7-0.4,0.9C70.2,23,70,23.1,69.7,23c-0.2-1,0.4-1.9,0.7-2.8c0.2-0.7,0.6-1.3,0.2-2
	c-0.5-0.5-0.7,0.1-0.9,0.3c-0.5,0.6-1,1.3-2,1c-0.1,0-0.2-0.1-0.3-0.2c-0.2-1.1,0.1-2,0.7-2.9c0.8-1.3,2.5-1.2,3.3,0.2
	c0.1,0.2,0.2,0.5,0.3,0.7c0.1,0.1,0.2,0.3,0.3,0.4c0.2,0.2,0.4,0.4,0.6,0.2c0.7-0.5,0.8-2.6,0.3-3.3c-3-0.1-6,0-9,0
	c-0.5,0.2-0.2,0.5-0.1,0.7c0.5,0.7,0.6,1.5,0.5,2.4c-0.1,0.4-0.2,0.8-0.4,1.1c-0.2,0.1-0.4,0-0.4-0.2c0-1-0.7-1-1.3-1
	c-1.8,0-3.8-0.5-5.3,1.1C56.7,18.7,56.4,19,56,19c-0.5-0.3-0.1-0.7,0.1-0.9c0.6-0.7,1.1-1.5,1.9-2c0.5-0.4,0.8-0.8,0.2-1.4
	c-0.1,0-0.2-0.1-0.3-0.1c-1.2,0-2.4-0.3-3.6,0.2c-0.1,0.1-0.2,0.1-0.3,0.2c-2-1.4-4.2-1.3-6.5-0.7c0,0.1-0.1,0.3,0,0.4
	c0,0.2,0.1,0.4,0.2,0.5c0.4,0.6,0.8,1.1,1.2,1.5c0.6,1.1,0.8,2.2,1.2,3.3c0.1,0.3,0.1,0.7-0.1,0.9c-0.7,0-0.8-0.5-0.9-1
	c-0.2-0.7-0.6-0.8-1.3-0.8c-2.6,0.2-5.2,0.7-7.8,1.3c-1.5,0.4-2.1,1.7-2.5,3.1c-0.2,0.7-0.5,1.3-0.8,2c-0.2,0.1-0.3,0-0.5-0.1
	c-0.3-0.4-0.1-0.8,0-1.2c0.6-2.3,1.5-4.5,2-6.8c0.2-0.8,0.6-1.5,1.3-1.9c0.3-0.2,0.7-0.4,0.3-0.9c-0.1-0.1-0.2-0.1-0.3-0.2
	c-1.7-0.1-3.4-0.3-5.2,0.1c0,0.1-0.1,0.2-0.1,0.3c0.6,0.9,0.6,1.8,0.3,2.8c-0.1,0.4-0.1,0.9-0.1,1.3c-0.3,1.5-0.7,3-1.3,4.4
	c-0.1,0.1-0.2,0.2-0.3,0.1c-0.6-1.1-1.4-0.6-2.2-0.3c-1.8,0.8-3.4,1.8-4.8,3.2c-0.7,0.8-1.6,1.3-2.5,1.9c-1.9,1.1-2.8,3.6-2.1,5.8
	c0.6,1.9,1.8,3.2,3.3,4.4c0.7,0.6,1.5,1.1,2.2,1.7c0,0,0,0.1,0,0.1C26.8,40.5,26.7,40.5,26.6,40.5z"/>
<path class="st4" d="M109.2,18.2c3.9,3.5,3.5,8.2,0.5,11.7c-2.4,2.8-5.5,4.9-8.9,6.4c-1.1,0.3-2,0.9-3,1.3c-1.1,0.2-1.9,1-2.9,1.2
	c-0.5,0-0.3-0.3-0.2-0.4c0.4-0.6,0.8-1,1.5-1.4c1-0.6,1.7-1.3,2.3-2.2c0.8-1.2,1.9-2,2.8-3.1c0.8-1.1,1.4-2.3,2.5-3.4
	c-1.9-0.1-3.6-0.3-5.2-0.3c-1.2,0-1.7-0.5-2-1.6c0.1-0.1,0.2-0.2,0.3-0.2c1.5,1,3.2,0.6,4.8,0.6c0.6,0,0.9-0.2,0.7-0.8
	c-0.1-0.2-0.3-0.4-0.5-0.6c-0.9-0.8-0.7-1.9-0.9-2.8c-0.4-1.9-0.7-3.9-1-5.9c-0.1-0.4-0.1-0.7-0.4-1c-0.4-0.4-0.3-1-0.6-1.4
	c-0.4-0.2-0.6,0.4-1,0.3c-0.4-0.2-0.2-0.5-0.1-0.8c-0.1-0.7-0.7-1-1.2-1.2c-1.6-0.7-3.1-1.7-4.8-2.3c-3.1-1-6.2-2-9.4-2.8
	c-0.4-0.1-1,0-1-0.7c1.1-0.5,2.2,0,3.3,0.3c5.7,1.4,11.2,3.2,16.5,5.8c2.6,1.3,5,3.1,7.4,4.8C108.7,18,108.9,18.1,109.2,18.2z"/>
<path class="st4" d="M16,23.9c-0.5-0.2-0.5-0.6-0.5-1c0-1.3-0.1-2.6,0.4-3.8c0.1-0.3,0.2-0.7-0.1-0.9c-0.4-0.3-0.8,0.2-0.9,0.5
	c-0.6,1.2-1.2,2.4-1.5,3.8c-0.3,1.9,0,3.6,0.3,5.4c0.3,1.5,1.1,2.6,2.3,3.4c0.3,0.2,0.6,0.3,0.7,0.7c1.1,2.1,2.8,3.8,4.3,5.6
	c0.8,0.9,1.6,1.4,2.7,1.8c0,0,0,0.1,0,0.1c0,0,0,0.1-0.1,0.1c-1.4-0.3-2.8-0.8-4-1.4c-1.3-0.7-2.6-1.2-4-1.8c-0.3,0-0.6-0.2-0.8-0.4
	c-1.4-0.9-2.7-1.8-4.2-2.6c-0.3-0.2-0.5-0.4-0.8-0.6c-0.6-0.7-1.4-1.3-1.9-2c-0.8-1-1.7-1.9-2.1-3.2C4.8,25,5.5,22.6,7,20.4
	c1.7-2.6,4.3-4.3,6.9-5.9c2.4-1.5,5-2.8,7.7-3.8C25,9.5,28.3,8,31.9,7.5c0.4,0,0.7,0,1,0.2c0.1,0.7-0.4,0.5-0.8,0.6
	c-2.5,0.8-5.1,1.3-7.5,2.2c-3.6,1.4-7.1,3.1-10.3,5.2c-0.2,0.2-0.5,0.3-0.7,0.9c1.6-0.6,3.2-0.2,4.5-1.4c0.3-0.2,0.5-0.3,0.8-0.1
	c0.1,0.3-0.1,0.5-0.2,0.7c-2,2-2.7,4.3-2.4,7C16.2,23.3,16.2,23.7,16,23.9z"/>
<path class="st5" d="M31.8,7.8c-2.2,0.4-4.4,1.1-6.6,1.8c-3.1,1.1-6.1,2.3-9,3.8c-2.8,1.5-5.5,3.2-7.8,5.4c-1.9,1.9-3.1,4.3-2.9,7.1
	c0.1,1.3,0.6,2.5,1.5,3.6c0.4,0.4,0.7,0.8,0.9,1.4C7.9,31,7.8,31,7.7,31c-4.2-3.9-4.4-8.7-0.5-12.9c3-3.3,6.7-5.3,10.7-7
	c7.2-3.1,14.8-4.8,22.5-5.9c7.4-1,14.8-1.3,22.3-1.1C69.8,4.3,76.9,5,83.9,6.5c4.1,0.9,8.2,1.8,12.1,3.6c0.1,0.1,0.1,0.2-0.1,0.3
	c-1.6-0.1-2.9-0.9-4.4-1.3C87.8,8,84.1,6.9,80.2,6.6C75.5,5.7,70.8,5.2,66,4.9c-4.2-0.2-8.3-0.1-12.5-0.2c-3.3,0.1-6.6,0.4-9.9,0.7
	c-0.2,0-0.3,0.1-0.4,0.2c-0.2,0.1-0.3,0.1-0.5,0.1c-1.2-0.1-2.3-0.2-3.3,0.5c-0.1,0.1-0.2,0.1-0.3,0.1c-0.4,0.1-0.8,0.1-1.2,0
	c-0.5-0.2-0.9,0-1.2,0.4c-0.1,0.1-0.2,0.1-0.3,0.1C34.8,7.1,33.3,7.4,31.8,7.8z"/>
<path class="st6" d="M96.6,26.3c0.1,0.9,0.7,1.5,1.5,1.4c1.8-0.1,3.5,0.4,5.3,0.1c0.2-0.1,0.5,0,0.6,0.2c0.2,0.3,0,0.5-0.2,0.7
	c-1.4,1.5-2.1,3.4-3.6,4.7c-1.6,1.3-2.4,3.4-4.4,4.2c-0.5,0.2-0.7,0.8-0.9,1.2c-1.2,0.5-2.4,0.9-3.7,1.2c-0.1-0.5,0.3-0.7,0.5-0.9
	c0.6-0.6,1.3-1.2,2-1.7c1.3-1.1,2-2.6,2.5-4.2c0.7-2.2-1.2-4.9-3.6-5.2c-0.6-0.1-1.3,0.1-1.4-0.8c0.7-0.5,1.5-0.2,2.2-0.3
	c0.5-0.1,1.1-0.1,0.7-0.9c-0.1-0.2-0.2-0.4-0.3-0.6c-0.1-1.6,0.8-2.5,2.6-2.2c0.5,0.1,1,0.2,1.4-0.3c0.1,0,0.2,0,0.3,0.1
	c0.3,0.5,0.2,1.1,0.2,1.6c0,0.5-0.2,0.9-0.8,1.1C97.1,25.9,96.9,26.1,96.6,26.3z"/>
<path class="st7" d="M79.5,27.3c0.4-0.4,0.8,0,1.1,0.1c1.6,0.5,3.1,0.3,4.6-0.6c0.3-0.2,0.6-0.5,0.9-0.7c0.5-0.5,1.1-0.6,1.7-0.3
	c2.2,1.3,4.5,2.5,5.8,4.9c1.4,2.5,1,4.5-1.6,7.1c-1.8,1.8-4.2,2.8-6.6,3.7c-0.2,0.1-0.4,0.1-0.5,0.3c-2.8,0.6-5.6,1.2-8.4,1.5
	c0.3-0.8,1-0.8,1.6-0.9c3.9-1,7.8-2.3,11-4.8c0.5-0.4,0.5-0.3,0.8-1c-0.8,0-1.5,0.6-2.3,0c0.2-1,1.2-0.9,1.8-1.1
	c0.5-0.2,1.2-0.1,1.2-0.9c0-0.3-0.4-0.5-0.4-0.8c0,0,0-0.1,0.1-0.1c0.2-0.4,1,0.1,1.1-0.6c0-0.6-0.2-1.1-0.6-1.5
	c-1.2-1.5-2.8-2.6-4.5-3.5c-0.4-0.2-0.8-0.2-1.2-0.1c-1.2,0.5-2.4,0.6-3.7,0.5c-0.5,0-0.9,0-1.3-0.3C80,27.8,79.5,27.8,79.5,27.3z"
	/>
<path class="st8" d="M85,41.7c0.8-0.6,1.7-1.1,2.7-1.5c2.2-0.9,4.2-2.2,5.5-4.3c1.3-1.9,1.2-3.9-0.2-5.8c-1.3-1.7-3.2-2.7-4.9-3.9
	c-0.7-0.5-1.4-0.4-2.1,0.2c-0.2,0.2-0.4,0.4-0.8,0.4c0.5-0.6,0.9-1.2,1.4-1.7c0.5-0.6,0.9-1.2,1.7-1.1c0.9,0.2,1.7,0.6,1.9,1.7
	c0.1,0.1,0.2,0.2,0.3,0.3c0.1,0.1,0.1,0.3,0.1,0.4c0.1,0.3,0.4,0.5,0.5,0.9c0.2,0.5,0.7,0.4,1.2,0.5c1.9,0.1,3,1.1,3.7,2.7
	c1.2,2.6-0.6,5.9-2.7,7.6c-0.8,0.6-1.5,1.3-2.3,2C89.1,40.8,87.1,41.2,85,41.7z"/>
<path class="st9" d="M34.6,42.3c-2.2-0.3-4.3-0.7-6.4-1.4c-1.5-1.3-3.3-2.1-4.6-3.6c-2.6-2.9-1.8-7,1.1-9.3c1.8-1.4,3.7-2.8,5.8-3.7
	c0.2-0.1,0.3-0.2,0.5-0.2c0.6-0.2,1.2-0.7,1.7-0.2c0.5,0.4-0.1,1-0.1,1.5c-0.3,0.4-0.7,0.4-1.1,0.3c-0.3-0.1-0.5-0.1-0.8,0
	c-2.5,1.2-4.9,2.5-6.4,4.8c-2.2,3.2-0.4,6.1,2.2,7.9c0.3,0.2,0.7,0.3,1.1,0c0.1-0.1,0.2-0.1,0.3-0.1c0.1,0,0.2,0.1,0.3,0.1
	c0.2,0.1,0.4,0.3,0.6,0.3c0.7,0.2,1.3,0.2,2,0.1c1.1-0.2,2.3-0.1,3.4-0.1c4.7,0,9.4,0,14.1,0c0.2,0,0.4,0.1,0.6,0.2
	c0.2,0.5-0.2,0.6-0.5,0.7c-0.6,0.2-1.2,0.1-1.8,0.1c-3.9,0-7.8,0-11.6,0c-1.2,0-2.3,0.2-3.7,0.4c1,0.6,1.9,0.9,2.6,1.3
	C34.1,41.8,34.6,41.8,34.6,42.3z"/>
<path class="st8" d="M32.5,25.3c0.1-1.6,0.1-1.5-1.5-0.8c-2.5,1-4.6,2.6-6.6,4.2c-2.4,1.9-2.6,6-0.6,8.3c0.9,1,1.8,1.8,3,2.4
	c0.6,0.4,1,1.1,1.8,1.2c0.2,0.1-0.1,0.2-0.2,0.3c-0.6,0-1.1-0.2-1.6-0.4c-1.3-1-2.5-1.9-3.7-3.1c-2.3-2.4-2.7-5.5-0.9-8.2
	c0.1-0.2,0.2-0.4,0.4-0.4c2.1-0.9,3.5-2.6,5.2-3.9c1.3-1,2.8-1.6,4.3-2.2c1-0.4,1,0.5,1.2,1c0.3,0.6,0.1,1.2-0.3,1.6
	C32.7,25.4,32.6,25.4,32.5,25.3z"/>
<path class="st10" d="M34.6,42.3c-1.2-0.4-2.1-1.3-3.3-1.5c-0.3,0-0.7-0.1-0.7-0.5c0-0.5,0.5-0.5,0.8-0.5c1-0.1,2.1-0.3,3.1-0.3
	c4.6,0,9.3,0,13.9,0c0.2-0.1,0.4-0.1,0.5,0c0,0.2-0.2,0.3-0.3,0.4c-0.5,0.1-1,0.1-1.5,0.1c-3.5-0.2-6.9,0.3-10.4,0.4
	c4,1.3,8,2.4,12.1,3c0.3,0.1,0.7,0.1,0.8,0.5c-0.3,0.3-0.6,0.2-1,0.1C43.9,43.9,39.2,43.3,34.6,42.3z"/>
<path class="st11" d="M87.7,36.4c0.6-0.1,1.2,0.2,1.7-0.2c0.3-0.3,0.8-0.3,1,0c0.3,0.5-0.1,0.9-0.4,1.1c-0.8,0.6-1.7,1.1-2.5,1.7
	c-1.9,1.4-4.2,1.8-6.2,2.7c-1.5,0.7-3.3,0.6-4.7,1.5c-2,0.4-4.1,0.6-6.1,0.7c-0.1,0.1-0.2,0.1-0.3,0c0.1-0.9,0.8-0.8,1.4-1
	c4.9-1.2,9.9-2.2,14.4-4.6c0.5-0.3,1.2-0.4,1-1.3c-0.1-0.5,0.2-0.6,0.5-0.6C87.6,36.4,87.7,36.4,87.7,36.4z"/>
<path class="st12" d="M80.5,6.3c2.3,0.2,4.5,0.9,6.7,1.4c3,0.6,5.9,1.8,8.8,2.7c1-0.1,1.8,0.6,2.7,0.9c1.5,0.6,2.9,1.3,4.3,2.1
	c0.7,0.5,1.5,0.8,2.1,1.3c1,0.7,2,1.4,3,2.1c0.5,0.4,0.9,0.9,1.2,1.5c-0.9,0.1-1.4-0.5-2-1c-3-2.5-6.5-4.2-10.1-5.8
	c-2.6-1.2-5.4-2.1-8.1-2.8C86.5,8,84,7,81.4,6.9c0,0-0.1,0-0.1,0C80.8,6.9,80.4,6.9,80.5,6.3z"/>
<path class="st13" d="M63.2,44.3c-0.1,0-0.1,0.1-0.2,0.1c-3.5,0.1-7,0.1-10.6,0c-0.1,0-0.1-0.1-0.2-0.1c0.7-0.5,1.4,0.1,2-0.1
	c-0.3,0-0.7,0-1.1,0c-0.3-0.1-0.6-0.2-0.7-0.6c-0.1-0.4-0.1-0.8,0.2-1.1c0.7-0.2,1.3,0.1,1.9,0.3c3.6,1,7.2,0.7,10.7-0.5
	c0.3-0.1,0.5-0.2,0.8-0.1c0.3,0.2,0.4,0.5,0.4,0.8c-0.7,0.9-1.7,1.2-2.8,1.1c-0.6,0-1.1,0.2-1.8,0C62.4,44.3,62.8,44,63.2,44.3z"/>
<path class="st14" d="M63.2,44.3c-0.5,0-1,0-1.5,0c1.6-0.3,3.3-0.4,4.7-1.4c0.7-0.7,1.5-1.2,2.6-1.2c0.3,0.3,0.4,0.6,0.3,1
	c-0.9,1.2-0.9,1.2-2.4,1.3c0.2,0,0.7-0.2,1.2,0.1C66.4,44.5,64.8,44.2,63.2,44.3z"/>
<path class="st15" d="M53.2,44.1c0.5,0,1,0,1.5,0c0,0.1,0,0.2,0,0.3c-0.8,0-1.6,0-2.5,0c-1.2-0.1-2.5,0.2-3.7-0.2
	c0.2,0,0.5-0.1,0.8-0.1c-0.2-0.3-0.5-0.1-0.7-0.2c-0.4-0.2-0.6-0.5-0.6-1c0-0.3,0.1-0.7,0.4-0.9C49.9,43.1,51.5,43.7,53.2,44.1z"/>
<path class="st16" d="M68,44.1c-0.5,0-1,0-1.6-0.1c1.1,0.1,1.9-0.6,2.7-1.3c0.3-0.5,0.8-0.8,1.4-0.8c0.2,0,0.3,0.1,0.4,0.3
	c0.3,0.7-0.7,1-0.6,1.6c0.1,0,0.2,0,0.3,0C69.7,44.2,68.8,44,68,44.1z"/>
<path class="st17" d="M102.9,13.5c-2.3-1.1-4.6-2.3-7-3.2c0-0.1,0-0.2,0-0.2c2.6,0.7,5,2,7.4,3.4C103.2,13.6,103.1,13.6,102.9,13.5z
	"/>
<path class="st18" d="M10.6,33.4c1.6,0.6,3,1.5,4.2,2.6C13.3,35.3,11.9,34.5,10.6,33.4z"/>
<path class="st19" d="M15.6,36.4c1.4,0.3,2.8,0.8,4,1.8C18.2,37.7,16.9,37.1,15.6,36.4z"/>
<path class="st20" d="M97.7,37.7c0.9-0.6,1.9-1.2,3-1.3C99.8,36.9,98.8,37.5,97.7,37.7z"/>
<path class="st21" d="M7.7,31c0.1,0,0.2,0,0.3,0c0.7,0.6,1.4,1.1,1.8,1.9C9,32.3,8.3,31.7,7.7,31z"/>
<path class="st22" d="M102.9,13.5c0.1,0,0.2,0,0.3,0c0.6,0.3,1.3,0.6,1.7,1.2C104.2,14.4,103.6,14,102.9,13.5z"/>
<path class="st23" d="M18.2,15.5c-0.4,0.7-1,1-1.8,0.9c-0.9-0.1-1.6,0.6-2.5,0.5c-0.3,0-0.6,0.3-0.8-0.1c-0.2-0.4,0.2-0.6,0.5-0.8
	c1.3-0.8,2.5-1.8,3.9-2.4c3.2-1.6,6.4-3.2,9.9-4.2c1.9-0.5,3.7-1,5.6-1.5c0,0,0.1-0.1,0.1-0.1c4.6-1.1,9.2-1.9,13.8-2.4
	c6.3-0.4,12.7-0.2,19-0.2c0.1,0,0.3,0,0.4,0c1.6,0.4,3.2,0.5,4.8,0.6c1.5,0.1,3,0.3,4.5,0.7C77.9,7,80,8.2,82.2,8.9
	C82.5,9,82.8,9.2,83,9.1c1.1-1,2.1-0.1,3,0.1c2.3,0.6,4.4,1.4,6.6,2.2c0.9,0.4,1.8,0.9,2.8,1.1c1,0.3,1.9,0.5,2.5,1.4
	c0.1,0.2-0.2,0.4,0,0.7c0.1,0.4,0.1,0.7-0.4,0.7c0-0.1,0-0.2,0-0.2c-1.2-1.1-2.8-1.6-4.3-2.3c-2-0.9-4.2-1.5-6.4-2.1
	c-0.3-0.1-0.7-0.2-1.2-0.1c1.1,1.5,2.4,2.6,4.3,2.8c2.1,0.3,4.2,0.5,6.3,1.1c0.4,0.1,0.9,0.1,1,0.6c-0.3,0.7-0.6,0.8-1.4,0.5
	c-1.9-0.6-4-0.9-6-1.5C89,13.9,88,14,87.1,13.4c-0.6-0.4-1.4,0-2.2,0c-0.3,0-0.7,0.1-1,0c-1.8-1-3.9-0.7-5.8-1.1
	c-2.5-0.5-5.2-0.5-7.8-0.6c-3.8-0.2-7.5-0.3-11.3-0.2c-0.7,0-1.3-0.3-1.8-0.7c-0.4-0.3-0.7-0.4-1,0c-0.6,0.7-1.3,0.8-2.2,0.8
	c-2.8-0.1-5.7,0-8.5,0.3c-3.3,0.3-6.6,0.4-9.9,1c-0.8,0.1-1.6,0.5-2.4,0.1c0.3-0.9,1-0.7,1.7-0.8c2.8-0.2,5.6-0.6,8.4-0.9
	c2.9-0.6,5.9-0.6,8.9-0.5c0.6,0,1.1,0,1.7,0.1c1.1,0.1,1.5-0.4,1.7-1.3c0.2-1,0.1-1.9,0-2.9c-0.1-0.6-0.5-0.5-0.9-0.6
	c-1.7-0.1-3.4,0.1-5.1,0.3c-2.9,0.2-5.7,0.4-8.6,0.9c-2,0.3-4,0.6-5.7,1.8c-0.2,0.2-0.5,0.3-0.8,0.3c-1.8,0.3-3.4,0.8-5,1.6
	c-0.5,0.2-1,0.3-1.5,0.2c-0.5-0.2-1,0-1.4,0.1c-1.9,0.6-3.8,1.3-5.6,2.1C19.6,13.7,18.6,14.3,18.2,15.5z"/>
<path class="st24" d="M18.2,15.5c-0.4-0.8,0.1-1.2,0.7-1.6c1.8-1.4,4-1.9,6.1-2.6c1-0.4,2-1.2,3.3-0.5c0.3,0.2,1.1-0.3,1.6-0.6
	c1-0.5,2.1-0.9,3.3-1.1c0.9-0.1,1.8-0.5,2.6-1.1c1-0.7,2.4-0.9,3.6-1.1c3.8-0.6,7.7-1,11.5-1.2c1.3-0.1,2.6-0.1,3.8-0.2
	c0.7,0,1,0,0.9,1c0,1.1,0.2,2.3-0.2,3.4c-0.2,0.8-0.6,1.1-1.4,1.1c-0.6-0.1-1.3,0-1.9,0c0.2-0.7,0.7-0.5,1.2-0.5
	c1.2-0.1,1.9-1.1,1.8-2.3c-0.1-0.4-0.3-0.6-0.7-0.7c-0.4-0.1-0.8-0.1-1.1-0.1c-3.8,0-7.5,0.4-11.3,0.9C39,8.7,35.8,9.2,32.7,10
	c-1.7,0.4-3.2,1.2-4.5,2.3c-0.2,0.2-0.5,0.3-0.5,0.8c1.2-0.3,2.4-0.4,3.6-0.7c3.5-0.7,7-0.8,10.5-1.3c0.5-0.1,1.1-0.2,1.4,0.4
	c-1.2,0.5-2.6,0.2-3.9,0.4c-1.7,0.3-3.4,0.5-5.1,0.5c-0.3,0-0.7,0.1-1,0.4c-1.4,0.6-3,0.5-4.5,0.9c-0.3,0.1-0.7,0-0.8,0.4
	c-0.1,0.1-0.1,0.1-0.2,0.1c-0.3-0.2-0.5-0.1-0.8,0.1c-0.4,0.3-0.8,0.4-1.2,0.3c-2.2-0.6-4.2-0.5-6.2,0.7c-0.2,0.1-0.4,0.2-0.6,0
	C18.7,15.4,18.5,15.5,18.2,15.5z"/>
<path class="st25" d="M67.5,19.4c0.1,0,0.2,0,0.2,0.1c0.1,0.2-0.1,0.3-0.2,0.3c0.1,0,0.2,0,0.2,0c0.9-0.1,1.5-0.5,1.9-1.2
	c0.2-0.3,0.4-0.8,0.9-0.4c-0.1,1.7-0.3,3.5-1.6,4.8c-1.1,0-0.6-0.9-0.8-1.4C68,21,67.7,20.6,67,20.6c-0.6,0-0.7,0.6-0.8,1.1
	c-0.2,0.7-0.4,1.4-0.6,2.2c-0.1,0.4-0.3,0.9,0.1,1.3c0.1,0.1,0.3,0.1,0.4,0.2c0.1,0,0.2,0.1,0.3,0.2c0.2,0.2,0.2,0.4,0.1,0.7
	c-0.1,0.1-0.2,0.2-0.3,0.2c-1.7,0.2-3.3,0.2-5,0c-0.5-0.4-0.1-0.6,0.2-0.7c0.5-0.3,0.8-0.8,0.9-1.4c0.6-2.5,1.5-5,2.1-7.6
	c0.1-0.4,0.3-0.8-0.1-1.2c-0.3-0.2-0.6-0.4-0.9-0.6c-0.4-0.2-0.2-0.4,0.1-0.5c3.1,0,6.1-0.1,9.2,0.1c0.5,0.8,0.3,2.7-0.4,3.3
	c-0.2,0.2-0.4,0.2-0.6,0.1c-0.1-0.1-0.2-0.2-0.2-0.3c-0.5-1.6-1.1-2.2-2.4-2.3c-0.4,0-0.9,0-1.1,0.4c-0.5,1-0.8,2.1-0.9,3.2
	C67.2,19.1,67.3,19.2,67.5,19.4z"/>
<path class="st26" d="M85.9,17.8c-0.4-0.3-0.1-0.7-0.4-1c-0.4-0.4-0.4-1-1-1.3c-0.8-0.5-1.7-0.5-2.2,0.1c-0.6,0.7-0.4,1.4,0.1,2
	c0.2,0.2,0.4,0.4,0.5,0.6c0.8,0.8,1.7,1.5,2.5,2.3c1.2,1.3,1.3,3.3,0.1,4.7c-1.4,1.6-3.1,2-5.1,1.5c-0.9-0.2-1.7-0.3-2.5,0
	c-0.1,0-0.2-0.1-0.3-0.2c-0.1-1,0.2-2,0.4-3c0.1-0.4,0.2-0.9,0.7-1c0.3,0,0.5,0.2,0.5,0.5c0,0.9,0.5,1.6,1,2.3
	c0.5,0.9,1.3,0.8,2.1,0.5c0.8-0.3,1.4-0.8,1.2-1.8c-0.1-0.2-0.2-0.5-0.3-0.7c-0.4-0.8-1-1.4-1.7-2c-1-0.8-2-1.6-2.2-2.9
	c0-0.1,0-0.2,0.1-0.3c0.2-0.8,0.2-1.6,0.6-2.3c0.8-1.3,2.4-2,4.3-1.5c1,0.3,2,0.4,2.8-0.3c0.1,0.1,0.2,0.1,0.3,0.2
	c0.1,1.1-0.3,2.1-0.6,3.1C86.7,17.6,86.5,18.1,85.9,17.8z"/>
<path class="st27" d="M27.7,38.5c-0.3,0.8-0.9,0.6-1.3,0.3c-3.7-2.6-4.9-6.3-1.1-9.9c1.5-1.4,3.3-2.5,5.2-3.4
	c0.4-0.2,0.6-0.5,0.9,0.1c0.3,0.2,0.4,0.6,0.6,0.8c0.5,0.5,1.2,0.6,1.9,0.6c2.4,0.1,4.7-0.4,7.1-0.3c0.7,0,1.1-0.3,1.3-1
	c0.2-0.8,0.7-1.6,0.5-2.5c-0.1-0.2-0.2-0.3-0.5-0.3c-1.2,1.2-2.4,2.4-4.2,2.7c-0.5,0.1-1,0.3-1.3-0.2c-0.4-0.7,0.3-1.2,0.5-1.8
	c0.3-1.2,1.1-1.7,2.2-1.9c2.7-0.4,5.4-1.2,8.1-1.5c1.6-0.2,1.9,0,2.3,1.5c0.1,0.6-0.2,1.2-0.6,1.7c-0.5,0-0.5-0.4-0.5-0.7
	c0-0.8-0.4-0.8-1-0.6c-0.7,0.1-1.4,0.2-2.1,0.3c-1.5,0.2-1.6,0.3-1.9,2.1c-0.1,0.6-0.4,1.1-0.6,1.7c-0.3,0.6-0.5,1.2-1.3,1.3
	c-1.8,0.5-3.7,0.2-5.5,0.3c-0.9,0-1.7-0.1-2.6,0.1c-0.8,0.1-1.7,0.2-2.4-0.3c-0.9-1.2-0.9-1.2-2.2-0.4c-1.6,0.9-3,1.9-4.2,3.4
	c-2.2,3-0.5,6.4,2.3,7.5C27.7,38.1,27.7,38.3,27.7,38.5z"/>
<path class="st28" d="M27.1,13.9c0.4-0.2,0.6-0.2,0.8,0.2c0.1,1.3-0.4,2.4-0.7,3.6c-0.1,0.5-0.4,0.8-1,0.5c-0.4-0.6,0-1.3-0.3-1.9
	c-1.5-1.8-3.2-1.7-4.6,0.2c-1.2,1.6-1.8,3.4-2,5.3c-0.1,1.1,0.1,2.2,1,3.1c0,0.1,0,0.1,0,0.2c1.2,0.8,2.6,0.5,3.9-0.6
	c0.4-0.4,0.8-0.9,1.5-0.9c0.3,0,0.3,0.2,0.3,0.4c-1.2,2-3,2.8-5.2,2.8c-2.2,0-3.8-1-4.8-3c0,0,0,0,0,0c0-0.3,0-0.6,0-0.9
	c0.1-1.7,0.2-3.4,1.1-5c1.4-2.6,4.6-4.7,8.2-3.6C25.9,14.6,26.7,15,27.1,13.9z"/>
<path class="st26" d="M50,21c-0.1-1.5-0.8-2.9-1.3-4.3c-0.4-0.5-0.5-1.3-1.2-1.6c-0.1-0.1-0.2-0.2-0.2-0.4c0.5-0.5,1.2-0.3,1.8-0.3
	c1,0,2-0.1,3,0.1c0.5,0.2,0.5,0.4,0.1,0.7c-0.5,0.3-0.5,0.8-0.3,1.3c0.4,0.9,0.5,1.9,1,2.7c1.1-0.9,1.9-1.9,2.1-3.3
	c-0.1-0.6-0.7-0.5-1-0.9c0-0.1,0-0.1,0.1-0.2c1.2-0.5,2.4-0.1,3.6-0.2c0.6,0.2,0.4,0.4,0.1,0.7c-1.8,1.5-2.9,3.5-4.1,5.3
	c-0.9,1.3-1.2,3-1.3,4.6c0.1,0.1,0.1,0.3,0.2,0.4c0.2,0.4,0.9,0.2,1,0.7c-0.1,0.1-0.2,0.2-0.3,0.2c-1.7,0.3-3.5,0-5.2,0.2
	c-0.1,0-0.3,0-0.4,0c-0.2,0-0.3-0.1-0.4-0.3c0-0.1,0-0.2,0.1-0.2c1.9-0.5,2-2.1,2.5-3.5c0.2-0.6,0.3-1.2,0.6-1.7
	c0,0.1-0.1,0.2-0.2,0.2C50.1,21,50,21,50,21z"/>
<path class="st28" d="M42.5,22.6c0.1,0.1,0.3,0.2,0.4,0.2c0,0.1,0,0.2,0,0.2c-0.5,3.3-0.7,3.5-4.1,3.5c-2.3,0-4.6,0.2-6.9-0.1
	c-0.7-0.9,0.5-0.6,0.6-0.9c0.8-0.8,0.7-2,1-2.9c0.7-2.1,1.1-4.2,1.6-6.3c0-0.2,0-0.3-0.1-0.4c-0.2-0.5-0.8-0.6-1.2-0.9
	c0-0.1,0-0.2,0-0.3c0.5-0.4,1.2-0.3,1.7-0.2c1.4,0.1,2.8-0.2,4.1,0.2c0.1,0,0.2,0,0.2-0.1c0,0.2-0.1,0.3-0.2,0.4
	c-1.3,0.4-1.6,1.5-1.9,2.6c-0.5,2.1-1.1,4.2-1.7,6.3c-0.1,0.5-0.3,0.9-0.2,1.4c0,0.5,0.4,0.4,0.7,0.4c2,0,3.6-0.7,4.9-2.3
	C42.1,23.2,42.3,22.8,42.5,22.6z"/>
<path class="st29" d="M80.3,25.5c-1-0.7-1.2-1.8-1.4-2.9c-0.3,0.1-0.6,0-0.8-0.1c-1.8-1-3.9-1.2-5.9-1.5c-0.3,0-0.6,0.1-0.8,0.3
	c-0.2,0.3-0.4,0.6-0.9,0.5c0.3-0.7,0.5-1.3,0.8-2c0.3-0.5,0.8-0.8,1.3-0.7c1.3,0.1,2.6,0.2,3.9,0.5c2,0.5,3.7,1.2,5.3,2.5
	c0.2,0.2,0.4,0.3,0.7,0.3c0.7,0,0.8,0.5,0.8,1c0,0.1-0.1,0.2-0.2,0.2c-0.6,0.1-1.2-0.1-1.7-0.4c-0.4-0.2-0.8-0.3-1.1,0.1
	c-0.3,0.4-0.1,0.8,0.1,1.1c0.2,0.3,0.8,0.5,0.2,0.9C80.5,25.7,80.4,25.6,80.3,25.5z"/>
<path class="st30" d="M97.3,15.1c-2.3-0.7-4.7-1.1-7.1-1.3c-2.2-0.2-3.5-1.6-4.9-3c-0.1-0.1-0.2-0.4-0.1-0.5
	c0.1-0.3,0.4-0.2,0.6-0.1c4,0.8,7.8,2.2,11.3,4.1c0.3,0.2,0.5,0.4,0.5,0.8C97.4,15.1,97.3,15.1,97.3,15.1z"/>
<path class="st8" d="M49.7,21.9c-0.4-1.5-0.6-1.5-2.2-1.3c-2.8,0.4-5.4,1.1-8.2,1.5c-1,0.1-1.6,0.8-2,1.6c0.1-2.1,1.5-3.3,3.6-3.7
	c2-0.4,3.9-0.9,6-1c0.6,0,1.3-0.2,1.9-0.1c0.8,0.1,0.5,1,0.9,1.5c0.1,0.2,0.2,0.4,0.4,0.6c0,0,0.1,0,0.1,0
	C50.2,21.3,50.1,21.6,49.7,21.9z"/>
<path class="st31" d="M55.9,18.9c0.6-0.3,1-0.9,1.6-1.3c1.6-1.1,3.4-0.4,5-0.5c0.2,0,0.4,0.2,0.5,0.1c0.9-0.3,0.9,0.2,0.6,0.8
	c-0.1,0.2,0,0.4,0.1,0.6c0.3,0.7-0.1,1.1-0.4,1.6c-0.6-1.4-1.8-1.1-2.9-1.1c-0.2,0-0.5,0-0.7,0c-1.9-0.2-3.6,0.1-5.1,1.3
	C54.4,19.8,54.8,19.2,55.9,18.9z"/>
<path class="st32" d="M70.5,21.9c0.2-0.2,0.5-0.4,0.6-0.6c0.3-0.4,0.5-0.6,1.1-0.6c1.7,0.3,3.4,0.5,5,1c0.4,0.1,0.7,0.3,1,0.6
	c0,1.3-0.4,2.6-0.6,3.8c-0.1,0.1-0.2,0.1-0.3,0C77,25.9,77,25.5,77,25.1c0.3-1.5,0.2-1.6-1.3-1.9c-1-0.2-1.9-0.4-2.9-0.6
	c-0.9-0.2-1.7-0.1-2.3,0.8c-0.4,0.5-0.8,1-1.6,0.4c0.1-0.6,1-0.5,1.2-1.1C70.2,22.5,70.3,22.2,70.5,21.9z"/>
<path class="st33" d="M54,14.8c0.6,0,1.3,0,1.3,1c-0.3,1.2-1.2,2.1-2,3c-1-0.3-1.4-1.8-0.9-3c0.2-0.4,0.9-0.9,0-1.4
	c-1.3-0.1-2.6,0-3.9,0c-0.4,0-0.8,0.1-1.2-0.2c0.7-0.9,1.7-0.7,2.5-0.6c0.6,0.1,1.2,0.2,1.9,0C52.3,13.3,53.8,14.3,54,14.8z"/>
<path class="st34" d="M16,23.9c1.2,1.7,2.6,2.7,4.8,2.8c1.7,0,3.2-0.6,4.4-1.8c0.3-0.3,0.6-0.5,0.8-0.7c0.6,0.9-0.1,1.6-0.7,2
	c-1.1,0.8-2.3,1.3-3.6,1.6C20.2,28,16.1,26.1,16,23.9z"/>
<path class="st35" d="M20.2,25.1c-0.8-0.3-1.1-1-1.2-1.8c-0.4-3,0.6-5.6,2.7-7.7c1.5-1.5,3.8-0.9,4.1,0.8c-0.2-0.1-0.4-0.1-0.5-0.2
	c-0.9-0.7-1.7-0.5-2.5,0.1c-1.7,1.2-2.6,3-2.9,5c-0.1,0.6-0.3,1.2-0.2,1.8C19.3,23.8,20.2,24.3,20.2,25.1z"/>
<path class="st36" d="M36.2,25.5c-0.5-0.5-0.3-1-0.1-1.6c0.6-2.1,1.2-4.2,1.7-6.4c0.3-1.4,0.8-2.6,2.4-2.9c0.4,0.6,0.4,1.1-0.2,1.3
	c-0.9,0.3-1.2,0.9-1.4,1.6c-0.8,2.5-1.5,5-2.2,7.5c0,0.1,0,0.3,0,0.5C36.3,25.5,36.3,25.5,36.2,25.5z"/>
<path class="st37" d="M77.7,26.8c0.8-0.8,1.6-0.7,2.6-0.4c3.1,0.9,5.9-1.1,5.8-3.9c0-0.7-0.3-1.4-0.7-2c0.4-0.2,0.5,0.2,0.6,0.4
	c0.9,1.5,0.9,3.2-0.2,4.7c-1.1,1.4-2.4,2-4.2,1.6c-1.2-0.3-2.4-0.5-3.6-0.1C77.7,27.2,77.7,27,77.7,26.8z"/>
<path class="st38" d="M52.1,25.3c-0.3-0.4-0.1-0.8-0.1-1.2c0.4-2.7,1.9-4.9,3.5-7c0.7-0.9,1.3-1.9,2.4-2.5c0-0.1,0.1-0.2,0.3-0.2
	c0.1,0,0.1,0,0.2,0c0.4,0.6,0,1.1-0.4,1.5c-1.1,1.2-2.2,2.5-3.2,3.8c-0.5,0.7-1,1.4-1.2,2.2c-0.3,0.9-0.6,1.8-0.9,2.6
	C52.5,24.8,52.6,25.3,52.1,25.3z"/>
<path class="st39" d="M67.5,19.4c-0.6,0.1-0.8-0.1-0.6-0.6c0.3-1,0.5-2,0.8-3c0.2-0.6,0.7-0.8,1.2-0.8c1,0.1,2,0.1,2.5,1.2
	c0.2,0.5,0.3,0.9,0.2,1.4c-0.1-0.1-0.3-0.3-0.3-0.4c-0.2-0.9-0.8-1.4-1.7-1.3c-0.9,0.1-1.4,0.7-1.6,1.5C67.8,18,67.6,18.7,67.5,19.4
	z"/>
<path class="st40" d="M97.5,15.3c0.2-0.2,0.4-0.4,0.4-0.7c0.4-0.3,0.5-0.9,1.1-0.6c-0.1,1.1-1,1.8-1.6,2.7c-1.7,2.8-3.5,5.5-5.2,8.2
	c-0.5,0.7-0.9,1.5-2,1.3c0-0.1-0.1-0.3-0.1-0.4c0.6-0.2,1.1-0.5,1.4-1C93.6,21.6,95.5,18.4,97.5,15.3z"/>
<path class="st41" d="M63.4,20.3c0.1-0.5,0.3-1,0.4-1.6c0.1-0.4,0.2-0.7,0.3-1.1c0.3-0.7-0.1-1.7,0.6-2.3c0.5,0.5,0.2,1,0.1,1.5
	c-0.7,2.4-1.4,4.8-2,7.2c-0.3,1-0.7,1.8-1.7,2.2c-0.1,0.1-0.2,0.1-0.3,0.1c-0.2-0.1-0.3-0.3-0.2-0.6c0.1-0.3,0.4-0.4,0.6-0.5
	c0.8-0.3,0.8-1.1,1-1.7c0.3-0.8,0.4-1.6,0.6-2.3C63,20.8,63.1,20.5,63.4,20.3z"/>
<path class="st42" d="M19.6,23c-0.4-1.2,0.1-2.3,0.5-3.5c0.6-1.7,1.6-3,3.3-3.8c0.7-0.4,1.5-0.4,1.9,0.5c-1.9-0.3-3,0.3-4,2
	C20.7,19.4,20,20.6,20,22C20,22.3,19.9,22.7,19.6,23z"/>
<path class="st43" d="M83,18.2c-0.8-0.6-1.5-1.2-1.2-2.3c0.2-0.6,0.6-1.1,1.4-1.1c1.2-0.1,2,0.5,2.4,2c-0.4,0.3-0.4-0.1-0.4-0.3
	c-0.4-1-1.1-1-1.9-0.6c-0.8,0.4-1.2,0.9-0.4,1.7C82.9,17.9,83.2,18,83,18.2z"/>
<path class="st44" d="M73,14.7c-3.2,0-6.4,0-9.6,0c-0.1-0.2-0.1-0.3,0-0.5c3.1,0,6.1,0,9.2,0c0.3,0,0.5-0.1,0.7,0.2
	C73.3,14.6,73.2,14.6,73,14.7z"/>
<path class="st45" d="M85.9,17.8c0.5-0.1,0.6-0.6,0.7-1c0.2-0.9,0.2-1.8,0.7-2.6c0.6,0.7,0.9,1.5,0.4,2.4c-0.2,0.4-0.3,0.9-0.5,1.4
	c-0.2,0.3-0.4,0.7-0.8,0.6C86,18.6,85.6,18.3,85.9,17.8z"/>
<path class="st46" d="M35.5,15.5c0.3,0.2,0.3,0.5,0.2,0.8c-0.7,2.7-1.5,5.5-2.2,8.2c-0.1,0.4-0.3,0.8-0.7,1
	c-0.1-0.1-0.1-0.2-0.1-0.4c0.1-0.5,0.3-1,0.4-1.5c0.3-1.5,1-2.9,1.2-4.5c0.2-1,0.4-2,0.7-3C35.1,15.9,35.2,15.7,35.5,15.5z"/>
<path class="st47" d="M26.1,18.3c0.6,0,0.7-0.4,0.8-0.9c0.3-1.1,0.4-2.2,0.9-3.3c0,0,0.1,0,0.1,0c0.5,1.6-0.1,3.2-0.6,4.7
	c-0.1,0.3-0.4,0.3-0.7,0.1C26.4,18.9,25.9,18.9,26.1,18.3z"/>
<path class="st48" d="M70.2,22.8c-0.1,0.7-0.5,0.9-1.1,0.9c-0.6,0.1-0.9-0.4-1.1-0.8c-0.3-0.8-0.6-0.4-0.9,0c-0.5,0.8-0.5,1.8-1,2.6
	c-0.2,0-0.3,0-0.5,0c-0.2-1.5,0.3-2.8,1.1-4c0.5-0.7,1.1-0.6,1.7,0c0.4,0.4-0.5,1.2,0.4,1.4c0.3,0.1,0.6,0,0.9,0.2
	C69.9,22.9,70.1,22.9,70.2,22.8z"/>
<path class="st49" d="M53.4,21.9c0-0.5,0.2-0.8,0.4-1.2c1.2-1.8,2.8-3.3,4.1-5c0.3-0.4,0.5-0.7,0.5-1.2c0.8,0.8,0.5,1.4-0.3,1.9
	c-1,0.7-1.7,1.6-2.2,2.6c-0.5,0.5-1.2,0.8-1.4,1.6c-0.3,0.5-0.5,1.1-1,1.4C53.5,21.9,53.5,21.9,53.4,21.9z"/>
<path class="st50" d="M87,14c-0.5,0.7-1.2,0.9-2.1,0.7c-0.6-0.2-1.2-0.3-1.8-0.3c-2.1,0-3,0.7-3.6,2.7c-0.1,0.3,0,0.7-0.3,0.9
	c-0.2-2.7,1.4-4.3,4.2-4.1C84.7,14,85.8,14.6,87,14z"/>
<path class="st51" d="M69.8,23c-0.4,0.2-0.7,0.2-0.9-0.2c0.7-0.3,0.6-1.1,0.8-1.6c0.3-1,0.6-2.1,0.8-3.1c0-0.1,0.1-0.1,0.2,0
	c0.7,0.2,0.5,0.7,0.4,1.1C70.6,20.4,70.2,21.7,69.8,23z"/>
<path class="st52" d="M36.2,25.5c0.1,0,0.1,0,0.2,0c0.1,0,0.3,0,0.4,0c2,0.1,3.7-0.6,4.9-2.2c0.2-0.3,0.3-0.7,0.8-0.6
	c-1,2.2-3.8,3.7-6.1,3.4C36.2,25.9,35.8,25.9,36.2,25.5z"/>
<path class="st53" d="M73,14.7c0.1-0.1,0.2-0.2,0.3-0.3c0.4,0.8,0.3,3.2-0.3,3.7c-0.4,0.4-0.9,0.8-1.2-0.2c0.7-0.1,0.7-0.6,0.8-1.1
	C72.8,16.1,72.9,15.4,73,14.7z"/>
<path class="st54" d="M83.2,23.7c0-0.5-0.3-0.9-0.7-1.1c-0.9-1.1-2.3-1.8-3-3.1c-0.2-0.4-0.7-0.7-0.2-1.2c0.5,1.1,1.4,2,2.3,2.7
	c0.8,0.6,1.5,1.2,1.9,2.2C83.5,23.4,83.7,23.7,83.2,23.7z"/>
<path class="st55" d="M40,14.6c-2,0-3.9,0-5.9,0c-0.1-0.5,0.2-0.5,0.5-0.5c1.6,0,3.2,0,4.8,0C39.7,14.2,40.1,14.1,40,14.6z"/>
<path class="st56" d="M47.3,14.2c1.5,0,3,0,4.5,0c0.3,0,0.7-0.1,0.9,0.2c0,0.2,0,0.3-0.2,0.2c-1.7,0-3.5,0-5.2,0
	C47.3,14.5,47.3,14.3,47.3,14.2z"/>
<path class="st57" d="M25.7,23.7c-1.1,0.7-2,1.8-3.4,2.1c-1,0.2-1.5,0.1-2-0.6c1.8,0.6,3.2,0,4.4-1.3C24.9,23.7,25.2,23.1,25.7,23.7
	z"/>
<path class="st58" d="M35.5,15.5c-0.4,1.2-0.7,2.4-1.1,3.6c0-0.5-0.1-1.1,0.2-1.6c0.5-1-0.1-1.8-0.4-2.7
	C34.7,14.8,35.2,14.9,35.5,15.5z"/>
<path class="st59" d="M58.2,14.4c-0.1,0.1-0.2,0.1-0.3,0.2c-1.3,0-2.6,0-3.9,0c0-0.2,0-0.4,0.2-0.4C55.6,14.2,56.9,13.9,58.2,14.4z"
	/>
<path class="st60" d="M63.4,14.2c0,0.2,0,0.3,0,0.5c0.4,0.4,1,0.2,1.3,0.7c-0.1,0.8-0.3,1.5-0.6,2.3c0.1-0.9-0.1-1.8-0.7-2.5
	C63.1,14.8,63.1,14.5,63.4,14.2z"/>
<path class="st61" d="M70.7,18c-0.1,0-0.1,0-0.2,0c-0.4,0-0.5,0.2-0.7,0.5c-0.6,1.1-1.6,1.4-2.9,1.3c0.3-0.2,0.6-0.3,0.8-0.4
	c0.9,0,1.5-0.5,1.9-1.3C69.9,17.6,70.2,17.3,70.7,18z"/>
<path class="st62" d="M77.7,26.8c0.1,0.1,0.2,0.2,0.3,0.3c0.4,0.7,1.1,0.2,1.6,0.2c0.2,0.2,0.5,0.3,0.7,0.5
	c-1.5,0.7-2.6,0.6-3.2-0.5c-0.2-0.4-0.5-0.8,0.2-1.1c0.1,0,0.1,0,0.2,0c0.3,0,0.2,0.3,0.2,0.4C77.7,26.7,77.7,26.7,77.7,26.8z"/>
<path class="st63" d="M47.5,15c0.8,0.1,0.9,0.2,1.2,1.6C48.1,16.2,47.7,15.7,47.5,15z"/>
<path class="st28" d="M90.3,26.2c1.1-0.2,1.5-1.1,2.1-1.9c2.2-3.4,4.3-7,6.7-10.3c0.4,0.4,0.1,1.1,0.4,1.6c0.7,1.4,0.7,2.9,0.9,4.4
	c0.3,1.5,0.6,3,0.7,4.5c0,0.6,0.5,0.8,0.9,1.1c0.2,0.1,0.4,0.2,0.5,0.4c0,0.5-0.4,0.5-0.7,0.5c-1.5,0-3,0.2-4.5-0.1
	c-0.2-0.1-0.5-0.4-0.2-0.5c1.6-0.5,1-1.7,0.9-2.7c0-0.1-0.1-0.1-0.1-0.2c-0.1,0-0.1,0-0.2-0.1c-0.8-0.1-1.6-0.1-2.3-0.1
	c-1.1,0-1.9,0.8-2.1,1.8c-0.1,0.4,0.3,0.6,0.4,0.9c0.1,0.1,0.2,0.3,0.3,0.4c-0.1,0.4-0.4,0.5-0.7,0.5c-1,0-2,0.2-3,0
	C90.4,26.3,90.3,26.3,90.3,26.2z"/>
<path class="st64" d="M75.7,6.7c-1.5-0.4-3.1-0.6-4.6-0.7c-1.6-0.1-3.2-0.1-4.7-0.7C66.6,5,67,4.9,67.4,5c3.2,0.2,6.4,0.5,9.5,1
	c1.5,0.2,3,0.5,4.5,0.9c0,0,0,0,0,0c1.6,0.7,3.4,0.9,5.1,1.5c3,1.1,6.3,1.7,9,3.5c0.7,0.5,1.6,0.8,2.4,1.3c0.4,0.2,0.5,0.5,0,0.7
	c-0.8-0.4-1.5-1-2.5-1.1C90.4,10.1,85,8.6,79.3,7.7c-0.3,0-0.6,0-0.8-0.2C77.7,6.9,76.6,6.9,75.7,6.7z"/>
<path class="st65" d="M97,26.2c1.4,0,2.9,0,4.3,0c0.4,0,0.8,0.1,1.2-0.3c0.3,1.1,0,1.5-0.9,1.2c-0.7-0.2-1.3,0.2-2,0.2
	c-1,0-2-0.1-2.8-0.9C96.9,26.3,96.9,26.3,97,26.2z"/>
<path class="st66" d="M102,25.5c-0.8,0.1-1-0.4-1.1-1c-0.5-3-1-6-1.4-9c0.8,0.2,0.6,0.9,0.7,1.3c0.4,2.5,0.8,5,1.2,7.5
	C101.4,24.9,101.9,25.1,102,25.5z"/>
<path class="st67" d="M97,26.2c-0.1,0.1-0.2,0.1-0.2,0.2c-0.1,0-0.1-0.1-0.2-0.1c0-0.3-0.1-0.7,0.4-0.7c1.1-0.1,1.1-0.8,1-1.6
	c0-0.3,0-0.7,0-1C98.9,24.4,98.6,25.4,97,26.2z"/>
<path class="st68" d="M27.1,13.9c0.1,0.1,0.5,0.1,0.3,0.3c-0.4,0.3-0.7,0.6-1.4,0.5c-1.3-0.3-2.6-0.7-4-0.3c-3,0.9-4.7,3-5.6,6
	c-0.2,0.9,0,1.8-0.4,2.6c-0.5-3.1,0.8-5.6,3-7.7c2.1-1.5,4.3-1.9,6.8-1C26.3,14.5,26.7,14.3,27.1,13.9z"/>
<path class="st69" d="M31.8,7.8c1.4-0.9,3-0.9,4.5-1.1c-0.3,0.8-1.1,0.6-1.7,0.8c-0.6,0.1-1.2,0.1-1.7,0.4c0,0,0,0,0,0
	C32.6,7.8,32.2,7.8,31.8,7.8z"/>
<path class="st4" d="M81.4,6.9c-2.4-0.3-4.8-0.5-7.2-1c-1.6-0.4-3.3-0.3-4.9-0.5c-0.9-0.1-1.9-0.3-2.9,0c0,0-0.1,0-0.1,0l-0.1,0
	c-0.2-0.1-0.3-0.2-0.5-0.2c-3,0.2-6.1-0.4-9.1-0.1c-1,0.1-2,0.3-3,0c-0.2-0.2-0.2-0.3,0-0.5c3.6,0,7.1-0.1,10.7,0
	c4.3,0.2,8.6,0.5,12.9,1.3c1.1,0.2,2.3,0.3,3.5,0.5C80.6,6.7,81.1,6.6,81.4,6.9z"/>
<path class="st4" d="M33,7.8c0.5-0.6,1.3-0.3,1.9-0.5c0.5-0.2,1.1-0.2,1.5-0.6c0.1,0,0.1,0,0.2,0c0.4-0.4,0.8-0.4,1.3-0.4
	c0.4,0.1,0.8,0.1,1.2-0.1l0,0c1.1-0.6,2.3-0.4,3.4-0.7c0.2,0,0.3,0,0.5,0c1.2-0.3,2.5-0.6,3.8-0.3c0.1,0.1,0.2,0.2,0.1,0.3
	c-2.7,0.5-5.4,0.7-8.1,1.2C36.8,7.1,35,7.8,33,7.8z"/>
<path class="st69" d="M46.8,5.3c-1.3-0.1-2.6,0.4-3.9,0.2c0-0.3,0.2-0.4,0.5-0.4C45.7,5,47.9,4.7,50,4.7c1.1,0,2.2-0.3,3.4-0.2
	c0,0.1,0,0.3,0,0.4c-0.5,0.4-1.2,0.2-1.8,0.2C50.1,5.1,48.5,5.7,46.8,5.3z"/>
<path class="st69" d="M42.5,5.6c-1,0.7-2.3,0.5-3.4,0.7C40.1,5.2,41.3,5.3,42.5,5.6z"/>
<path class="st69" d="M39.1,6.3c-0.8,0.4-1.7,0.2-2.5,0.5c0.1-0.6,0.5-0.8,1-0.6C38.1,6.3,38.6,6.2,39.1,6.3z"/>
<path class="st70" d="M93.8,25.5c-0.5,0-1,0-0.8-0.7c0.3-0.8,0.6-2,1.3-2.1c1.1-0.2,2.4-0.6,3.5,0.2c0,0.6-0.2,0.9-0.8,0.7
	c-0.4-0.1-0.8-0.2-1.2-0.2C94.4,23.6,94,24.1,93.8,25.5z"/>
<path class="st71" d="M90.4,26.4c0.8-0.4,1.6-0.1,2.4-0.2c0.4,0,0.9,0.1,1.3-0.3c0.3,0,0.6,0.1,0.5,0.5c-0.2,0.4-0.3,0.8-0.9,0.8
	c-0.9,0-1.7,0-2.6,0C90.7,27.2,90.3,27,90.4,26.4z"/>
<path class="st25" d="M90.5,33.6c0.3,0.1,0.5,0.2,0.6,0.5c-0.1,0.1-0.2,0.2-0.3,0.2c-2.9,0.8-5.7,1.8-8.5,2.9c-0.2,0-0.4,0-0.5-0.1
	c-0.1-0.1-0.2-0.3-0.2-0.5c0-0.4,0.3-0.8-0.1-1.1c-0.4-0.2-0.9-0.2-1.3-0.2c-6.5,0-12.9,0-19.4,0c-0.2,0-0.9-0.4-0.7,0.4
	c0.4,0.4,0.9,0.6,1.4,0.9c0.1,0.1,0.3,0.2,0.4,0.3c0.4,0.4,0.9,0.7,1.4,1c0.2,0.2,0.5,0.4,0.1,0.7c-0.3,0.1-0.5,0.1-0.8,0.2
	c-11.1,0-22.3,0-33.4,0c-0.5,0-0.9,0-1.3-0.2l0-0.1c0.5-1.6,1.1-2.1,2.7-2.1c6.2,0,12.3,0,18.5,0c0.6,0,1.2,0.2,1.8,0.1
	c0.3-0.6-0.2-0.7-0.5-0.9c-1.2-0.7-2.4-1.6-3.6-2.2c-0.1-0.2-0.2-0.3-0.1-0.5c0.1-0.1,0.2-0.2,0.3-0.2c0.6-0.1,1.2-0.1,1.8-0.1
	c10.3,0,20.7,0,31,0c0.8,0,1.6,0,1.7-1.1c0.1-0.3,0.3-0.5,0.5-0.6c1.6,0,2.9,0.8,4.3,1.2c1,0.3,2,0.7,3,1
	C89.8,33.1,90.3,33.2,90.5,33.6z"/>
<path class="st72" d="M86.4,32.2c-1.4-0.5-2.8-0.9-4.1-1.4c-0.2,0-0.5,0-0.6-0.3c-0.4-1-1.5-1.5-2.3-1.6c-2.6-0.4-5-1.7-7.7-1.9
	c-0.6,0-1.1-0.2-1.7-0.2c-0.8,0-1.6,0.1-2.2,0.7c-0.4,0.4-0.9,0.6-1.6,0.5c-1.2-0.2-2.5-0.1-3.7-0.1c-1.1,0-1.8-0.3-2.2-1.3
	c-0.1-0.3-0.1-0.5-0.1-0.8c0.1-0.2,0.2-0.4,0.5-0.2c0,0.2,0.1,0.4,0.1,0.6c0.2,0.1,0.4,0.2,0.6,0.3c0.3,0.3,0.7,0.4,1.1,0.4
	c1,0,2,0,2.9,0c0.8,0,1.2-0.3,1.1-1.1c-0.1-0.1-0.2-0.3-0.3-0.4c-0.1-1.7,0.8-2.4,2.4-1.6c0.3,0.1,0.6,0.4,1,0.2
	c1.6-0.6,3.1-0.1,4.6,0.2c1,0.2,2.1,0.2,3.1,0.7c0,0.4,0,0.8,0,1.1c-0.2,1,0.5,2,1.4,1.7c0.5-0.1,1-0.1,1.6-0.2
	c0.4,0.3,0.9,0.2,1.4,0.2c0.5,0.2,1.1,0.2,1.5,0.1c1.4-0.3,2.6,0.3,3.7,1c1.2,0.8,2.2,1.8,3,3c0.2,0.2,0.3,0.5,0.1,0.8
	c-0.2,0.3-0.6,0.2-0.8,0.1C88.3,32.8,87.4,32.3,86.4,32.2z"/>
<path class="st73" d="M86.4,32.2c1-0.2,1.8,0.4,2.7,0.6c0.3,0.1,0.6,0.3,0.8,0c0.2-0.3-0.2-0.5-0.3-0.7c-1.8-2.2-3.8-4.2-7-3.9
	c-0.3,0-0.7,0.1-0.9-0.2c1.2,0,2.5,0,3.6-0.6c0.3-0.2,0.8-0.1,1.1,0c1.9,1,3.6,2.2,5,3.8c0,0,0,0.1,0.1,0.1c0.4,0.5,0.6,1.2,0.6,1.8
	c-0.1,1-1.1-0.1-1.4,0.4C89.1,33.1,87.8,32.7,86.4,32.2z"/>
<path class="st74" d="M90.9,34.2c0.1,0,0.2-0.1,0.2-0.1c0.2,0.8-0.2,1.3-1,1.4c-0.9,0.1-1.7,0.4-2.4,0.9c0,0,0,0,0,0
	c-0.9,0.1-1.6,1.1-2.6,0.6c-0.3-0.6,0.2-0.6,0.5-0.7c0.5-0.2,1-0.4,1.5-0.5C88.4,35.3,89.6,34.7,90.9,34.2z"/>
<path class="st75" d="M28,38.5c0.3,0,0.6-0.1,0.9-0.1c11.1,0,22.2,0,33.4,0c0.3,0,0.5,0,0.8,0.1c0.4,0.3,0.1,0.5-0.1,0.7
	c-0.4,0.2-0.8,0.2-1.2,0.2c-3.9,0-7.7,0-11.6,0c-0.4,0-0.8,0-1.2-0.3c-0.2,0-0.3,0-0.5,0c-0.8-0.2-1.6-0.2-2.3-0.2
	c-4.8,0-9.5,0-14.3,0c-1.2,0-2.4,0.2-3.6,0C28,38.8,28,38.7,28,38.5z"/>
<path class="st76" d="M28.2,38.9c0.6-0.2,1.2-0.2,1.8-0.2c5.3,0,10.7,0,16,0c0.8,0,1.6,0.1,2.4,0.4c-5.5,0-11,0-16.5,0
	c-1.1,0-2.2,0.5-3.4,0C28.5,39,28.3,38.9,28.2,38.9z"/>
<path class="st77" d="M48.9,39.1c4.3,0,8.6,0,12.9-0.1c0.5,0,1.2,0.3,1.3-0.6c0.2,0,0.4,0,0.7-0.1c0.5,0.7,0.4,1.1-0.3,1.4
	c-0.4,0.1-0.8,0.1-1.2,0.1c-2.8,0-5.6,0-8.5,0c-1.2,0-2.3,0-3.5,0c-0.5,0-0.9,0.1-1.3-0.3c-0.2,0-0.3,0-0.5,0
	C48.6,39.4,48.7,39.3,48.9,39.1z"/>
<path class="st78" d="M51.6,36.4c-0.1,0.5-0.4,0.5-0.8,0.4c-1.3-0.3-2.6-0.2-3.8-0.2c-5.4,0-10.7,0-16.1,0c-1.2,0-2,0.2-2.5,1.3
	c-0.1,0.2-0.3,0.3-0.5,0.5c-0.1,0-0.1,0-0.2,0.1c-0.1-0.1-0.1-0.2-0.2-0.3c0-0.3,0.2-0.5,0.4-0.7c0.5-0.5,0.7-1.3,1.5-1.4
	c1.6-0.1,3.2,0,4.7,0c5.2,0,10.4-0.1,15.6,0c0.3,0,0.6,0,0.8,0C51,36,51.3,36.1,51.6,36.4z"/>
<path class="st79" d="M32.7,25.2c0,0.1,0,0.2,0.1,0.4c-0.2,0.3-0.8,0.3-0.9,0.7c0,0.2,0,0.3-0.2,0.2c-0.1-0.3-0.1-0.6-0.2-0.9
	c0.4-0.1,0.8,0.1,1-0.3C32.5,25.2,32.6,25.2,32.7,25.2z"/>
<path class="st80" d="M48.2,42.9c0.2,0.3,0.3,0.6,0.5,0.9c-2.4-0.3-4.8-0.9-7.1-1.5c-1.7-0.4-3.3-0.9-5-1.3
	c-0.3-0.1-0.8-0.1-0.7-0.6c0.1-0.4,0.5-0.4,0.8-0.4c3.5,0.1,6.9-0.4,10.4-0.2c0.1,0.2,0,0.3-0.1,0.4c-0.9,0.5-0.5,1.1,0,1.6
	C47.3,42.2,47.9,42.3,48.2,42.9z"/>
<path class="st81" d="M48.9,39.5c1.6,0,3.2,0,4.7,0c0.1,0.1,0,0.2-0.1,0.3c-0.1,0.1-0.2,0.1-0.3,0.1c-0.6,0.1-1.3,0-1.9,0.1
	c-0.5,0.1-1.1,0.1-1.2,0.8c-0.1,0.6,0.2,1.1,0.6,1.5c0.6,0.5,1.4,0.7,2,1.3c0.2,0.1,0.3,0.3,0.5,0.4c-1.9,0.1-3.5-0.6-4.8-2
	c-0.5-0.8-0.5-1.6,0.2-2.3C48.7,39.7,48.8,39.6,48.9,39.5z"/>
<path class="st82" d="M48.6,39.8c-0.4,0.7-0.2,1.5-0.2,2.3c0,0.3-0.1,0.6-0.2,0.9c-0.4-0.3-0.9-0.5-1.3-0.8
	c-1.2-0.9-1.2-1.6,0.2-2.4C47.6,39.8,48.1,39.8,48.6,39.8z"/>
<path class="st83" d="M81.9,36.6c0,0.1,0,0.3,0,0.4c0.1,0.2,0.3,0.3,0.4,0.4c0.5,0.8,1.1,0.1,1.7,0c1-0.4,2-0.7,3.1-0.6
	c1.4,0.5,0.3,1-0.1,1.2c-1.2,0.7-2.4,1.4-3.7,1.9c-3.5,1.3-7.1,2.1-10.7,3.1c-0.8,0.2-1.8-0.1-2.4,0.8c-0.5-0.1-0.5-0.1-0.3-0.3
	c0.4-0.3,0.7-0.8,0.8-1.3c2-1,4.2-1.6,6.4-2.3c1.1-0.3,2.1-0.8,3.2-1.1c0.3-0.1,0.5-0.2,0.7-0.4c0.2-0.2,0.4-0.5,0.3-0.8
	c-0.1-0.4-0.4-0.5-0.7-0.5c-1-0.1-2.1-0.4-3.2-0.1c-1.2,0.3-2.5-0.1-3.7-0.1c-1.9,0-3.9,0-5.8,0c-0.4,0-1.2,0.3-1-0.7
	c0.5-0.3,1-0.4,1.6-0.4c3.8,0,7.5,0,11.3,0C80.6,35.8,81.4,35.8,81.9,36.6z"/>
<path class="st7" d="M82.1,37.5c-0.1-0.2-0.1-0.3-0.2-0.5c0.1,0,0.3,0,0.4,0.1c0.9,0,1.8-0.4,2.8-0.2c1,0.2,1.8-0.6,2.7-0.5
	c-0.2,0.2-0.5,0.3-0.7,0.5c-1.1,0.1-2.1,0.7-3.2,0.9C83.2,37.9,82.6,38.1,82.1,37.5z"/>
<path class="st84" d="M53.4,39.8c0.1,0,0.2,0,0.2,0c2.9-0.2,5.9-0.1,8.8-0.1c0.7,0,1.4-0.1,2-0.5c1.1-0.2,1.5,0.7,1.9,1.4
	c0.3,0.6,0.4,1.2-0.2,1.7c-2.7,1.2-5.6,1.5-8.5,1.3c-1.7-0.1-3.3-0.5-4.9-1.1c-0.9-0.3-1-0.9-0.9-1.7C51.9,39.7,52.8,40,53.4,39.8z"
	/>
<path class="st85" d="M66.1,42.3c0.4-1.3-0.1-2.4-1.4-2.9c-0.5-0.5-0.7-1.4-1.6-1.4c-0.6-0.1-1-0.4-1.4-0.9c0.3-0.5,0.8-0.8,1.3-0.6
	c2.2,0.7,4.2,1.5,5.7,3.4c0.5,0.6,0.8,1.3,0,2c-0.8,0.4-1.7,0.8-2.5,1.1C66.3,42.7,66.2,42.5,66.1,42.3z"/>
<path class="st86" d="M53.4,39.8c-1.7,0.6-1.8,1.2-0.7,2.7c0,0.4,0,0.8,0,1.1c-0.9-0.2-1.6-0.7-2.3-1.1c-0.7-0.4-0.7-1.1-0.7-1.8
	c0-0.8,0.7-0.7,1.2-0.8C51.8,39.6,52.6,39.8,53.4,39.8z"/>
<path class="st87" d="M68.9,41.8c0.6-1.2-0.1-2-1.5-3.1c-0.9-0.7-2.1-1.2-3.2-1.7c-0.8-0.4-1.6-0.4-2.3,0.1
	c-0.1-0.1-0.2-0.2-0.3-0.2c-0.5-0.8,0.3-0.7,0.6-0.7c1.3,0,2.6-0.1,3.9,0c1.2,0.9,2.5,1.7,3.6,2.6c0.7,0.6,1,1.4,1.1,2.3
	c0,0.4,0,0.8-0.4,1c-0.5,0.2-0.9,0.5-1.4,0.7C69.1,42.4,69,42.1,68.9,41.8z"/>
<path class="st88" d="M70.5,42c0.4-1.6-0.3-2.7-1.6-3.6c-0.9-0.6-1.9-1.1-2.5-2c0.2-0.1,0.3-0.1,0.5,0c0.3,0.4,0.8,0.2,1.2,0.2
	c2.6,0.1,5.1-0.1,7.7,0.2c1.6,0.2,3.2-0.4,4.8,0c0.5,0.1,1.1,0,1.2,0.7c0.1,0.7-0.1,1.3-0.9,1.6c-2.2,0.7-4.4,1.4-6.5,2.1
	c-1.2,0.4-2.3,1.1-3.5,1.1C70.6,42.2,70.5,42.1,70.5,42z"/>
<path class="st30" d="M60.7,6.9c3.6,0.5,7.5,0.3,11.4,0.8c2.8,0.4,5.7,0.6,8.5,1.2c1.9,0.4,3.2,1.7,4.5,3.1c0.2,0.2,0.3,0.4,0.1,0.6
	c-0.2,0.2-0.5,0.2-0.7,0.1c-2.9-0.9-5.8-0.9-8.8-1.3c-3.6-0.4-7.3-0.5-11-0.6c-1.8,0-3.6,0.2-5.4-0.1c-1.3-0.3-1.6-0.6-1.3-1.9
	C58.3,6.9,58.3,6.9,60.7,6.9z"/>
<path class="st89" d="M43.2,11.5c-1.7-0.3-3.3,0.2-4.9,0.3c-2.8,0.3-5.5,0.7-8.2,1c-0.7,0.1-1.3,0.4-2,0.5c-0.4,0.1-0.8,0.3-1.1,0
	c-0.3-0.4,0.2-0.8,0.4-1c0.5-0.5,1-0.9,1.6-1.2c2.5-1.5,5.2-1.9,8-2.4c3.1-0.6,6.2-0.8,9.2-1.2c2.7-0.3,5.6-0.5,8.3-0.3
	c0.7,0,1.1,0.5,0.9,1.2c-0.1,0.4-0.2,0.7-0.3,1.1c-0.2,1-0.8,1.4-1.8,1.3c-0.4,0-0.9-0.2-1.3,0.2C49.2,10.9,46.2,11.1,43.2,11.5z"/>
<path class="st90" d="M75.7,6.7C78,6.9,80.2,7.6,82.5,8c2.8,0.5,5.5,1.4,8.2,2.4c1.7,0.6,3.4,1.3,4.8,2.5c-1.7-0.7-3.5-1.4-5.2-2
	c-2.1-0.7-4.1-1.3-6.2-2c-0.2-0.1-0.5-0.1-0.5,0.1c-0.3,1.3-1,0.4-1.5,0.2C79.8,8.6,77.9,7.2,75.7,6.7z"/>
<path class="st64" d="M46.8,5.3C49,5.2,51.2,5,53.4,4.9c1.9-0.1,3.9-0.1,5.8-0.2c1.3-0.1,2.6,0.1,3.9,0.3c0.6,0.1,1.3-0.1,1.9-0.1
	c0.4,0,0.8,0,1.1,0.5c-6.4,0.1-12.9-0.2-19.3,0.2C46.8,5.5,46.8,5.4,46.8,5.3z"/>
<path class="st62" d="M77.3,25c-1.8,0.1-3.5-0.6-5.2-0.8c-0.7-0.1-1.4-0.2-2,0c-0.6,0.2-1,0.1-1.5-0.1c-1.4-0.5-1.9-0.2-2.2,1.4
	c-0.1,0-0.2,0-0.2,0c0-1,0.5-1.9,0.8-2.8c0.1-0.4,0.4-0.8,0.9-0.8c0.5,0,0.3,0.5,0.4,0.8c0.1,0.5,0.5,0.7,0.9,1
	c0.6,0.5,1,0.1,1.3-0.3c0.5-1,1.2-1.3,2.3-1c1.3,0.3,2.6,0.5,3.9,0.7C77.5,23.2,77.7,23.8,77.3,25z"/>
<path class="st91" d="M68.4,21.4c-1.4-0.2-1.7,0-2.2,1.6c-0.2,0.8-0.4,1.7-0.6,2.5c-0.7-0.3-0.5-0.9-0.3-1.3
	c0.2-0.9,0.5-1.8,0.7-2.7c0.1-0.5,0-1.1,0.8-1.1C67.6,20.3,68.3,20.5,68.4,21.4z"/>
<path class="st92" d="M61.2,26.6c-0.1-0.1-0.2-0.2-0.3-0.3c0.1,0,0.2-0.1,0.3-0.1c1.8,0,3.7,0,5.5,0c0.2,0.5-0.1,0.7-0.4,0.7
	C64.5,27.1,62.8,27.5,61.2,26.6z"/>
<path class="st93" d="M61.2,26.6c1.3,0.3,2.6,0.2,3.9,0.2c0.6,0,1.2,0.1,1.5-0.7c0-0.1,0-0.2,0-0.3c0.4,1.2,0.3,1.4-0.8,1.4
	c-1.1,0-2.2,0-3.4,0C61.9,27.3,61.4,27.3,61.2,26.6z"/>
<path class="st94" d="M80.3,25.5c0.1,0,0.3,0,0.4,0.1c0.8-0.1,1.8,0.1,2.3-0.8c0.2-0.3,0.3-0.7,0.7-0.8c0.1,0,0.4-0.2,0.3,0
	c-0.1,0.9-0.5,1.7-1.4,2c-0.8,0.4-1.7,0.4-2.4-0.2C80.2,25.7,80.2,25.6,80.3,25.5z"/>
<path class="st95" d="M77.7,26.6c-0.2-0.1-0.2-0.3-0.2-0.4c0.2-1.3,0.3-2.6,0.8-3.8c0.2,0.1,0.4,0.2,0.7,0.2c-0.9,0.8-0.6,2-0.9,3
	C77.9,25.9,77.9,26.3,77.7,26.6z"/>
<path class="st29" d="M83.7,23.9c-0.1,0.3-0.2,0.7-0.5,1c-0.4-0.4-0.3-0.8,0-1.2c0,0,0,0,0,0c0.2-0.1,0.2-0.3,0.3-0.5
	C83.5,23.4,83.6,23.7,83.7,23.9z"/>
<path class="st96" d="M34.2,36.2c-1.7,0-3.4,0.1-5.1,0.1c-1.2,1-1.2,0.9-1.9-0.5c-0.9-2-0.4-3.6,1-5c1.5-1.5,3.1-3,5.5-2.9
	c0.2,0,0.4-0.2,0.6-0.2c2,0,4.1,0,6.1,0c0.6,0,1.2,0,1.8-0.3c0.5-0.2,0.5-0.8,0.9-1.1c0.4-1,1.1-1.5,2.2-1.5c1.1,0,2.2-0.7,3.4-0.4
	c0.1,0.1,0.2,0.2,0.2,0.3c-0.1,1.1-1.1,1-1.8,1.4c-0.1,0.1-0.3,0.2-0.4,0.3c-1.7,0.7-3.3,1.8-5,1.9c-2.6,0.2-4.9,0.9-7.1,2
	c-0.9,0.4-2,0.6-2.8,1.3c-0.4,0.4-0.9,0.7-1.1,1.2c-0.8,1.6,0,2.9,1.7,2.9c1.7,0,3.3,0,5,0c0.5,0,1,0,1.4,0.6
	C37.1,36.3,35.7,36.2,34.2,36.2z"/>
<path class="st97" d="M34.1,27.8c-2.1,0.4-3.8,1.4-5.3,2.8c-1.5,1.4-2.1,3.1-1.3,5c0.2,0.4,0.4,0.9,0.5,1.3c0.6,0.2,0.5-0.9,1.1-0.5
	c-0.4,0.5-0.7,0.9-1.1,1.4c-0.7,0.4-1.2,0.2-1.6-0.4c-0.3-0.4-0.6-0.8-0.9-1.2c-0.8-1.4-1-2.8-0.2-4.4c1.1-2.2,2.9-3.5,5-4.5
	c0.4-0.2,0.9-0.2,1.3,0.1c0.7,0.7,1.5,0.4,2.3,0.4C34,27.7,34,27.7,34.1,27.8z"/>
<path class="st98" d="M31.6,27.3c-2.1,0.2-3.6,1.4-4.9,2.8c-0.2,0.2-0.3,0.4-0.5,0.6c-2,2.8-1.2,4.5,0.8,6.8c0.4,0.4,0.7-0.3,1,0.1
	c-0.1,0.2-0.2,0.4-0.4,0.5C25.5,38,23.5,35,24,32.8c0.4-2,1.5-3.5,3.2-4.6c0.8-0.6,1.7-1,2.6-1.6C30.7,25.9,31.3,26.3,31.6,27.3z"/>
<path class="st99" d="M31.6,26.4c0.1-0.1,0.2-0.1,0.2-0.2c3,0,6,0,8.9,0c0.7,0,1.1-0.2,1.3-0.9c0.3-0.8,0.3-1.8,0.9-2.5
	c0.7,1.5-0.3,2.7-0.8,4c-0.1,0.3-0.6,0.3-0.9,0.3c-2.4,0.1-4.8,0.1-7.2,0.2C33.1,27.4,32.2,27.2,31.6,26.4z"/>
<path class="st100" d="M43.7,24.6c0.1-2.1,0.5-2.4,2.5-2.5c0.7,0,1.3-0.2,2-0.3c0.9-0.2,1.4-0.1,1,1c-0.1,0.3-0.1,0.5,0.1,0.7
	c0,0.4,0.2,0.9-0.4,1.2l0,0c-0.3-0.8-1-0.8-1.8-0.8C45.9,23.9,44.8,24.4,43.7,24.6z"/>
<path class="st101" d="M43.7,24.6c1.2-1,2.7-1,4.1-1.1c0.8-0.1,1.2,0.3,1.1,1.1c-1.1-0.3-2.1,0.4-3.2,0.4c-1,0-1.8,0.4-2.5,1.2
	C43.1,25.6,43.6,25.2,43.7,24.6z"/>
<path class="st102" d="M48.9,24.6c0.1-0.4,0.3-0.8,0.4-1.2c0.1-0.5,0.3-1.1,0.4-1.6c0.1-0.3,0.2-0.6,0.4-0.9c0.1,0,0.5-0.5,0.3,0
	c-0.4,1.5-0.7,3-1.3,4.4c-0.4,0.8-1.3,0.5-1.8,0.9c-0.4,0-0.4-0.2-0.2-0.4C47.8,25.5,48.6,25.4,48.9,24.6z"/>
<path class="st98" d="M34.1,27.8c-0.1,0-0.2,0-0.2,0c0.3-0.4,0.8-0.2,1.2-0.2c2.4-0.1,4.8,0.2,7.2-0.2c-0.2,0.5-0.7,0.4-1.2,0.4
	C38.8,27.8,36.5,27.8,34.1,27.8z"/>
<path class="st103" d="M47.1,25.7c0.1,0.1,0.1,0.3,0.2,0.4c0.1,0.1,0.1,0.2,0.2,0.3c0.5,0.4,1.1,0.5,1.8,0.5c0.9,0,1.9-0.1,2.8,0
	c0.9,0.1,1.4-0.2,1.6-1.1c0.9,0.6,0.9,1.2-0.1,2c-1.8,0.3-3.5,0.2-5.3,0.1c-1.1-0.1-1.6-1-1.4-2.1C46.9,25.9,47,25.8,47.1,25.7z"/>
<path class="st104" d="M52.5,14.6c0.1-0.1,0.2-0.1,0.2-0.2c0.9,0.6,0.1,1.1-0.1,1.5c-0.5,1-0.3,2.1,0.6,2.8c0.1,0.3,0,0.5-0.3,0.6
	c-0.4,0-0.4-0.3-0.5-0.6c-0.3-0.7-0.4-1.5-0.7-2.1C51.2,15.6,51.3,14.9,52.5,14.6z"/>
<path class="st105" d="M53.6,26c0.3,0.9,0.1,1.4-1,1.4c-1.3-0.1-2.6,0-3.9,0c-0.7,0-1.1-0.2-1.3-0.8c0.1,0,0.2,0,0.2-0.1
	c1.7,0,3.3,0.2,5,0c0.3,0,0.5,0,0.7-0.3c0-0.1-0.1-0.1-0.1-0.2c0,0,0.1,0,0.1-0.1C53.5,25.9,53.6,25.9,53.6,26z"/>
<path class="st106" d="M53.4,26.1c-0.1,0.8-1,0.6-1.4,0.6c-1.4,0.1-2.9,0.3-4.3-0.3c0.8-0.5,1.6-0.1,2.4-0.2
	C51.2,26.2,52.3,26.2,53.4,26.1z"/>
<path class="st107" d="M52.9,19.3c0.1-0.2,0.2-0.4,0.3-0.6c0.7-1,1.5-1.9,2-2.9c0.1,0.1,0.2,0.3,0.2,0.4c-0.7,1.2-1.4,2.3-2.3,3.3
	C53.2,19.5,53,19.4,52.9,19.3z"/>
<path class="st49" d="M52.1,25.3c0.5-1.1,0.7-2.4,1.3-3.4c0,0,0,0,0,0c0.4,0.5,0,0.9,0,1.4c-0.3,0.7-0.4,1.5-0.7,2.2
	c-0.2,0.1-0.3,0.1-0.5,0C52.2,25.4,52.2,25.3,52.1,25.3z"/>
<path class="st108" d="M52.3,25.5c0.1,0,0.3,0,0.4,0c0.1-0.1,0.3-0.2,0.5-0.1c0.3,0.1,0.4,0.3,0.3,0.6c0,0-0.1,0-0.1,0
	C53,25.9,52.4,26.2,52.3,25.5z"/>
<path class="st109" d="M83.2,23.7c0,0.4,0,0.8,0,1.2c-0.6,1.1-1.6,1-2.5,0.6c0-0.5-0.6-0.6-0.8-1.1c-0.2-0.6,0.1-0.9,0.4-1.3
	c0.3-0.4,0.7-0.2,1,0C81.8,23.4,82.5,23.5,83.2,23.7z"/>
<path class="st110" d="M53.2,23.2c0.1-0.5,0.2-0.9,0.2-1.4c0.4-0.4,0.5-1.1,1.1-1.4c1.3-1.4,2.9-1.8,4.8-1.6c1,0.1,2,0.1,3,0
	c0.8,0,1.2,0.1,0.9,1c0,0.1,0.1,0.3,0.2,0.4c-0.1,0.3-0.2,0.6-0.2,0.9c-0.9-0.5-1.8-0.6-2.8-0.6c-1,0-2,0.1-3,0
	c-1.5-0.1-2.5,0.5-3.2,1.8C53.9,22.7,53.8,23.2,53.2,23.2z"/>
<path class="st111" d="M53.5,25.9c-0.1-0.1-0.2-0.3-0.3-0.4c-0.3-0.5-0.1-0.9,0.2-1.3c0.7-0.8,1.7-0.8,2.6-0.8
	c1.8-0.1,3.7,0,5.5,0.1c0.7,0,0.8,0.4,0.6,1c-0.1,0.4-0.5,0.7-0.7,1c-0.2,0.1-0.4,0.2-0.6,0.3c-0.1,0.1-0.2,0.1-0.3,0.2
	c-0.7,0.4-1.4,0.3-2.1,0.2c-0.7-0.1-1.4,0-2.1,0c-0.7,0.1-1.1,0.3-1.4,0.9c-0.2,0.4-0.5,1-1.2,0.7c0.4-0.6,0.9-1.2,0-1.8
	C53.6,26,53.5,25.9,53.5,25.9z"/>
<path class="st112" d="M53.4,24.4c-0.1,0.4-0.2,0.7-0.2,1.1c-0.2,0-0.3,0-0.5,0c-0.1-0.8,0.3-1.5,0.5-2.2c2.4-3.7,1.8-2.9,5.8-2.9
	c1.2,0,2.4,0.1,3.6,0.1c0.6,0,0.2,0.6,0.6,0.8c-0.2,0.8-0.5,1.7-0.7,2.5c-0.1,0-0.2,0-0.2-0.1c-0.2-1.3-1.1-1.2-2.1-1.2
	c-1.2,0-2.3,0.1-3.5,0C55.1,22.3,54,22.9,53.4,24.4z"/>
<path class="st113" d="M53.4,24.4c0.1-1.5,0.8-2.3,2.3-2.3c1.8,0,3.7,0,5.5,0c0.8,0,1.4,0,1,1.1c0,0.1,0.1,0.3,0.1,0.5
	c-0.1,0.7-0.3,1.5-1.1,1.8c0-0.1,0.1-0.3,0.1-0.4c0.2-0.3,0.6-0.7,0.4-1.1c-0.3-0.6-0.7,0-1.1,0c-1.6-0.4-3.2-0.2-4.8-0.2
	C55.2,23.7,54.2,23.8,53.4,24.4z"/>
<path class="st114" d="M95.7,21.7c-0.3-0.1-0.9,0-0.6-0.6c0.5-1,1.1-2,1.9-2.8c0.4,0.7,0.3,1.4,0.3,2c-1,0-0.8,1-1.2,1.5
	C96,21.8,95.8,21.8,95.7,21.7z"/>
<path class="st115" d="M96.1,21.6c0-0.3,0-0.6,0.1-0.9c0.2-0.6,0.5-1,1.1-0.5c0.2,0.4,0.2,0.9,0.2,1.4C97,22,96.6,22,96.1,21.6z"/>
<path class="st116" d="M96.1,21.6c0.5,0,0.9,0,1.4,0c0.1-0.2,0.3-0.3,0.4-0.5c-0.4,1.7-1.8,0.5-2.6,1.1c0-0.5,0.4-0.4,0.4-0.6
	C95.8,21.7,96,21.6,96.1,21.6z"/>
<path class="st117" d="M53.6,27.8c0.4,0,0.7-0.2,0.8-0.5c0.7-2,2.3-1.3,3.7-1.3c0.8,0,1.6,0,2.3,0.1c0,0.2,0,0.4,0,0.7
	c0.3,1.1,1,1.3,2.1,1.3c1.3-0.1,2.5-0.2,3.8,0.1c0.4,0,0.8,0,1-0.3c1.4-1.8,3.3-1.1,5-0.8c1.7,0.3,3.5,0.3,4.9,1.4
	c0.2,0.1,0.5,0.1,0.8,0.1c1.3-0.1,2.3,0.7,3.4,1.1c0.6,0.2,0.3,1.1,0.9,1.3c-0.1,0.1-0.3,0.2-0.4,0.3c-0.3,1.5-0.3,1.6-1.8,1.4
	c-2.6-0.2-5.2,0-7.8,0c-8.1,0-16.1,0-24.2,0c-0.4,0-0.8-0.1-1.2,0.1c0,0.1-0.1,0.2-0.1,0.2c0.3,1.2,1.5,1.7,2.4,2.4
	c0.3,0.3,0.7,0.4,0.8,0.9c-2.7,0.2-5.5,0.1-8.2,0.1c-2.5,0-5,0-7.5-0.1c1.4-0.3,2.8,0,4.3-0.3c-2.1,0-4.2,0-6.3,0
	c-1.7,0-2.6-1.4-1.9-3.1c0.5-1.3,1.6-2.1,2.8-2.5c1.4-0.4,2.7-1.1,4-1.6c1.4-0.6,2.7-0.8,4.1-0.8c1,0.1,1.9-0.1,2.5-1
	c0.2-0.3,0.6-0.5,1-0.4c0.9,0.1,1.6-0.2,2.2-0.7c0.3,1.4,0.8,1.8,2.1,1.8C50.5,27.8,52.1,27.8,53.6,27.8z"/>
<path class="st66" d="M60.2,36.1c-0.5-0.2-1-0.4-1.3-0.8c0.1-0.4,0.4-0.3,0.7-0.3c7.1,0,14.3,0,21.4,0c0.4,0,0.9-0.1,1,0.5
	c0,0.4-0.1,0.7-0.6,0.6c-4.4-0.3-8.8-0.2-13.2-0.1C65.5,36.1,62.9,36,60.2,36.1z"/>
<path class="st72" d="M46.9,32.7c0.4-0.4,0.9-0.2,1.3-0.2c7.7,0,15.4,0,23.2,0c2.1,0,4.1,0,6.2-0.2c0.8-0.1,1.6,0,2.5,0.2
	c0.9,0.2,1.8,0.2,1.6-1.2c0,0,0-0.1,0-0.1c0.1,0,0.1,0,0.2,0c0.1,1.6,0.1,1.6-1.4,1.6C69.2,32.7,58,32.7,46.9,32.7z"/>
<path class="st118" d="M60.2,36.1c0.8-0.6,1.7-0.4,2.6-0.3c1,0,1.9,0.1,2.9,0.1c5.2,0,10.4,0,15.6,0.1c0.5,0,0.4-0.3,0.6-0.5
	c0.1,0.4,0,0.7-0.1,1.1c-0.7-0.3-1.5-0.4-2.3-0.4c-3.2,0-6.5,0-9.7,0c-1,0-2,0-3,0.2c-0.2,0-0.3,0-0.5,0c-1.4,0-2.8,0-4.2,0
	c-0.3,0-0.8-0.2-0.6,0.5C61.1,36.7,60.6,36.5,60.2,36.1z"/>
<path class="st119" d="M85,36.8c-0.9,0.3-1.8,0.8-2.8,0.2c0.2-0.4,0.5-0.4,0.8-0.5c2.2-0.8,4.5-1.5,6.7-2.3c0.4-0.1,0.7-0.1,1.1-0.1
	c-1.4,1.4-3.5,1.6-5.2,2.3C85.4,36.5,85.1,36.6,85,36.8z"/>
<path class="st86" d="M63.2,37.9c1.2-0.3,1.4,0.5,1.6,1.4c-0.4,0.3-0.8,0.5-1.3,0.5c-3.3,0-6.5,0-9.8,0c0-0.1,0-0.1,0-0.2
	c3,0,6.1,0,9.1-0.1c0.8,0,1.4-0.1,0.9-1.1C63.5,38.2,63.4,38.1,63.2,37.9z"/>
<path class="st120" d="M51.6,36.4c-0.3,0-0.6-0.1-0.9-0.1c-1.1-0.6-2.2-1.3-3.1-2.1c-0.3-0.2-0.6-0.5-0.5-0.9
	c1.7,0.5,2.9,1.7,4.3,2.6C51.6,36,51.6,36.2,51.6,36.4z"/>
<path class="st121" d="M47.1,33.2c0.9,1.4,2.6,1.8,3.6,3c-0.3,0-0.5,0-0.8,0c-1.3-0.9-2.8-1.6-3.5-3.2c0,0,0-0.1,0-0.1
	c0.1,0,0.2,0,0.3,0C46.9,33.1,47,33.2,47.1,33.2z"/>
<path class="st111" d="M66.4,28c-1.4,0-2.8-0.1-4.2,0c-1.1,0.1-1.6-0.3-1.7-1.4c0.6,1.3,1.7,1.1,2.8,1.2
	C64.3,27.8,65.4,27.5,66.4,28z"/>
<path class="st122" d="M82.1,37.5c0.6,0.2,1.2,0.3,1.8,0.2C83.2,37.8,82.5,38.8,82.1,37.5z"/>
<path class="st123" d="M59.1,43c-1-0.2-2.1-0.3-3.2-0.6c-0.7-0.2-1.2-0.6-1-1.4c0.1-0.7,0.6-1,1.4-1c2,0,3.9,0,5.9,0
	c0.8,0,1.4,0.3,1.5,1c0.1,0.8-0.5,1.1-1.3,1.3C61.3,42.6,60.2,42.8,59.1,43z"/>
</svg>
